<svg width="380" height="498" viewBox="0 0 380 498" fill="none" xmlns="http://www.w3.org/2000/svg">
<mask id="path-1-inside-1_2033:222" fill="white">
<path fill-rule="evenodd" clip-rule="evenodd" d="M64.3984 0.437269C64.1612 0.677209 63.9673 2.00475 63.9673 3.38736C63.9673 5.46291 64.1922 5.90018 65.2599 5.90018C66.2674 5.90018 66.5524 6.33745 66.5524 7.88395V9.86706L64.5063 8.79389C57.9131 5.33507 48.1441 11.8856 49.4166 18.9114C50.0493 22.4023 55.7733 27.7315 63.4736 31.9986C69.7069 35.4529 71.3439 36.7122 69.5989 36.7122C68.3859 36.7122 66.5524 38.833 66.5524 40.2353C66.5524 42.0971 69.5065 44.5791 71.7226 44.5791C74.4027 44.5791 76.8927 42.0309 76.8927 39.288V37.215L79.4798 39.5863C80.9022 40.8902 82.4216 41.9568 82.8546 41.9568C83.2882 41.9568 82.989 42.4216 82.1896 42.9893C81.1976 43.6947 80.7387 44.682 80.7445 46.1033C80.749 47.248 80.7329 48.7748 80.709 49.4959C80.6004 52.7732 81.5905 58.1102 82.4946 59.1237C83.042 59.7373 84.1142 60.33 84.8768 60.4401C86.1105 60.6184 86.2456 61.0026 86.0976 63.9186C85.8882 68.0428 84.277 70.4016 81.4774 70.6828C79.0532 70.926 78.6202 71.7121 79.4255 74.4078L80.0129 76.3745L80.0685 74.2439C80.1222 72.1919 80.2249 72.1113 82.8708 72.0615C84.3817 72.0333 85.2742 71.8681 84.8554 71.6944C84.3397 71.4813 84.6008 70.6199 85.6633 69.0327C86.793 67.344 87.2331 65.7922 87.2331 63.499C87.2331 60.5627 87.3559 60.3129 88.8029 60.3129C90.8729 60.3129 92.6947 58.5094 91.768 57.3766C91.3944 56.9197 91.2716 56.0622 91.4952 55.4708C91.7188 54.8795 91.5644 53.9833 91.1514 53.4792C90.6383 52.8518 90.615 52.429 91.079 52.1379C92.2417 51.4096 91.8268 50.4741 90.0359 49.7831C89.0129 49.3884 88.5541 48.8823 88.905 48.5349C91.3705 46.0928 93.0262 50.2262 93.0398 58.8589C93.0502 65.3831 94.0842 69.1579 96.0902 69.9918C96.785 70.2809 95.0478 70.6225 91.757 70.8441L86.2637 71.2132L93.2111 71.3358L100.158 71.4577V73.4048V75.3518L91.9185 75.557L83.6786 75.7616L92.2417 75.9045L100.805 76.0467V73.0966C100.805 70.4462 100.652 70.1466 99.3015 70.1466C96.5859 70.1466 94.9062 67.4646 94.3007 62.1623C93.3739 54.045 93.4605 53.1658 95.1499 53.5861C96.4909 53.9198 96.467 53.8358 94.8423 52.5063C93.8735 51.7131 92.7716 49.9004 92.3942 48.4772C91.7175 45.9289 90.9278 45.255 90.1387 46.5504C89.5247 47.5581 85.9405 49.2875 85.9405 48.5762C85.9405 48.232 86.9203 46.8966 88.1172 45.609C89.8123 43.7859 90.7973 43.268 92.5693 43.268C95.504 43.268 97.1378 44.7456 98.886 48.9793L100.297 52.3962L98.7406 55.2073C97.8843 56.7532 96.6835 58.7881 96.0715 59.7288C95.0213 61.3441 95.0206 61.4897 96.0669 62.3511C96.8748 63.0152 97.0383 63.0323 96.6719 62.414C96.0831 61.4202 101.286 51.7904 102.412 51.7904C102.814 51.7904 103.664 52.1772 104.302 52.6506C105.391 53.4576 105.26 53.9198 102.192 60.1208L98.9222 66.731L107.457 75.167C121.849 89.3916 141.95 104.674 154.626 111.028C157.37 112.403 159.612 113.724 159.608 113.963C159.604 114.203 159.154 115.873 158.607 117.676C154.616 130.825 151.127 146.328 148.969 160.506C147.17 172.329 145.69 186.699 146.218 187.234C146.416 187.435 147.339 187.093 148.269 186.474C149.2 185.856 150.089 185.479 150.244 185.636C150.399 185.793 149.381 190.54 147.982 196.184C145.213 207.356 143.32 217.884 142.062 229.124C141.159 237.185 140.924 264.746 141.699 271.572C142.184 275.839 142.152 275.997 140.792 275.997C139.976 275.997 138.378 277.101 136.998 278.617L134.614 281.237L133.889 278.781C132.838 275.224 129.733 270.545 127.043 268.463C122.595 265.022 115.386 265.799 109.153 270.391C103.919 274.247 102.64 279.871 105.625 285.9L107.214 289.109L104.494 289.119C97.775 289.144 90.7171 292.29 89.0491 296.004C88.5127 297.198 87.5491 297.665 84.5 298.211C80.0692 299.002 76.1321 300.79 75.6933 302.208C75.46 302.962 75.6383 302.931 76.4875 302.069C77.636 300.904 80.6243 299.878 84.9711 299.157C86.9261 298.833 88.2652 297.969 90.4644 295.613C94.0557 291.766 98.7612 290.135 105.088 290.544C107.353 290.69 109.206 290.757 109.206 290.695C109.206 290.631 108.188 288.864 106.944 286.768C104.439 282.548 104.028 279.181 105.635 276.031C107.021 273.311 111.496 269.667 114.89 268.493C124.266 265.253 130.318 269.843 134.164 283.111C134.313 283.624 135.303 282.658 136.516 280.817C138.005 278.558 139.105 277.578 140.317 277.436C141.997 277.238 142.034 277.32 142.786 283.008C143.207 286.183 144.203 292.365 145.001 296.745L146.451 304.71L144.147 305.094C142.88 305.305 132.973 305.79 122.132 306.171C111.29 306.554 101.984 306.988 101.451 307.138C100.263 307.473 127.053 306.94 138.612 306.399L147.013 306.006L148.873 313.783C149.896 318.06 151.948 325.353 153.433 329.99L156.133 338.42L152.963 340.151C141.71 346.297 132.613 352.569 123.587 360.402C120.575 363.016 117.888 365.155 117.616 365.155C117.343 365.155 116.72 364.667 116.233 364.07C114.013 361.355 107.92 360.458 103.228 362.157C100.823 363.027 100.805 363.021 100.798 361.309C100.78 356.359 94.6807 348.683 88.2025 345.458C85.4261 344.076 84.0605 343.849 78.5084 343.849C72.6435 343.849 71.7 344.027 68.3096 345.769C66.2551 346.826 63.2539 349.121 61.6401 350.872C57.3217 355.555 56.0137 359.009 55.6899 366.59L55.4185 372.942L53.0686 371.381C48.0943 368.078 40.0178 367.594 34.1077 370.247C28.3973 372.809 23.9419 379.07 23.9128 384.573L23.8986 387.273L17.2743 387.601C3.85256 388.266 -3.83548 393.9 1.94541 398.834C4.45617 400.977 6.94237 401.659 16.4665 402.816C28.005 404.219 36.1305 404.635 60.5951 405.075L82.7505 405.473L78.9427 410.734C73.3486 418.462 61.7448 436.266 55.443 446.79C46.3888 461.909 27.2915 497.309 27.8718 497.897C28.003 498.03 30.2889 493.967 32.9515 488.868C40.7139 474.005 45.5176 465.379 54.2022 450.708L62.3517 436.941L62.7523 445.791C63.1757 455.133 64.326 459.661 66.588 460.888C70.7086 463.126 73.8165 460.325 89.1693 440.54C96.319 431.327 99.8528 428.091 102.766 428.091C105.337 428.091 106.374 430.158 108.897 440.323C112.535 454.974 118.052 463.993 125.697 467.787C128.717 469.286 129.868 469.504 133.618 469.289C141.864 468.816 149.276 463.395 158.855 450.83C167.12 439.988 171.781 435.96 177.232 434.949C179.155 434.592 180.396 434.863 183.187 436.248C187.512 438.395 190.623 441.894 196.912 451.691C204.057 462.82 205.497 464.906 207.702 467.317C211.866 471.87 215.736 472.51 220.513 469.437C225.866 465.993 231.267 456.822 242.277 432.473C246.104 424.01 247.709 422.19 251.346 422.19C256.361 422.19 262.06 427.566 274.881 444.385C293.392 468.671 297.059 468.715 301.731 444.713C305.122 427.29 306.807 422.387 310.621 418.845C314.175 415.544 314.003 415.405 322.313 428.294C336.332 450.035 345.33 465.569 355.919 486.308C359.288 492.907 362.183 498.167 362.351 497.996C362.751 497.591 350.193 473.44 342 458.855C328.195 434.285 317.976 418.779 298.995 393.605L297.809 392.034L325.168 392.033C351.707 392.031 367.477 391.365 372.339 390.038C383.039 387.121 376.071 380.225 359.149 376.986C355.237 376.237 354.828 376.005 354.462 374.314C353.623 370.441 348.544 367.373 344.373 368.219L342.51 368.597V363.703C342.51 354.336 337.399 347.564 328.472 345.101C322.737 343.519 318.608 344.117 310.035 347.769C309.067 348.181 308.904 347.872 308.904 345.627C308.904 341.563 306.592 335.007 303.891 331.409C294.941 319.491 277.51 316.457 265.468 324.721C258.479 329.517 255.263 336.091 255.263 345.583V350.685L250.093 347.295L244.923 343.905V340.272C244.923 338.273 245.822 323.363 246.921 307.137C248.296 286.822 248.95 271.971 249.021 259.445L249.124 241.252H252.704C260.094 241.251 267.689 238.014 272.006 233.026C279.383 224.503 279.462 218.435 272.348 206.506C271.381 204.884 270.91 203.854 271.303 204.219C272.899 205.702 277.832 215.362 278.556 218.42L279.331 221.697L281.676 219.378C286.406 214.704 292.92 213.662 301.121 216.271C303.416 217.001 305.393 217.498 305.514 217.374C305.636 217.251 303.223 213.959 300.153 210.059C297.082 206.159 291.641 198.675 288.061 193.428C284.481 188.182 280.556 182.488 279.339 180.775C278.122 179.062 277.275 177.661 277.457 177.661C277.639 177.661 281.93 183.487 286.994 190.609C307.881 219.98 309.97 221.85 321.829 221.784C331.031 221.733 338.785 218.468 342.12 213.242C342.867 212.07 343.646 211.108 343.85 211.103C344.054 211.099 347.637 215.225 351.812 220.273C355.987 225.321 359.67 229.451 359.995 229.451C360.896 229.451 365.845 222.803 369.19 217.098C374.37 208.265 378.623 195.501 379.601 185.856L380 181.922L374.988 178.012C349.121 157.83 321.555 137.595 299.331 122.476C287.572 114.477 285.047 112.497 285.656 111.755C286.996 110.116 288.639 110.072 295.405 111.495C306.007 113.723 311.537 112.507 317.484 106.637C322.011 102.167 323.424 98.4845 323.433 91.125C323.442 84.3627 322.344 81.1261 318.688 77.1337C315.138 73.2573 313.107 72.6941 296.004 70.8434C285.409 69.6975 282.882 67.5269 279.552 56.7119C277.223 49.1485 274.914 45.7821 270.58 43.6312C265.526 41.1229 259.968 41.2036 249.576 43.9347C237.996 46.9785 237.454 46.772 232.632 37.4904C230.194 32.7978 225.738 28.4015 221.192 26.2033C215.6 23.4998 204.423 23.76 198.719 26.7271C190.038 31.2421 184.296 39.5168 182.579 49.9876C181.854 54.4127 180.827 52.7574 181.053 47.5279C181.262 42.6937 180.825 41.1826 180.057 44.0874C179.843 44.8984 179.663 47.4066 179.659 49.6598C179.65 53.3232 179.787 53.7572 180.942 53.7572C181.943 53.7572 182.235 54.1944 182.235 55.6918C182.235 64.4739 187.635 74.0859 194.526 77.569C197.867 79.2577 198.037 79.9802 195.094 79.9802C192.762 79.9802 189.997 81.0652 188.354 82.6261C187.061 83.8546 186.916 83.8356 178.335 81.3097C160.359 76.0166 140.527 68.0481 113.141 55.1142C107.046 52.2356 101.65 50.0387 101.151 50.2335C100.522 50.478 99.995 49.7503 99.4418 47.8773C99.0016 46.3872 97.841 44.3713 96.8625 43.3984L95.0833 41.629L97.6206 39.7836L100.158 37.9381V39.6498C100.158 42.0211 102.842 44.5791 105.329 44.5791C107.509 44.5791 110.499 42.1069 110.499 40.3048C110.499 38.6599 109.26 36.7122 108.214 36.7122C106.161 36.7122 107.52 35.4876 113.245 32.1802C124.2 25.8513 127.302 22.6763 127.302 17.791C127.302 14.1853 125.93 11.5827 122.944 9.52485C119.894 7.42242 115.631 7.2959 112.526 9.21608C111.331 9.95491 110.275 10.4702 110.18 10.3607C109.621 9.71956 110.787 5.90018 111.541 5.90018C112.173 5.90018 112.438 5.02826 112.438 2.95009V0H88.6335C75.5408 0 64.6349 0.196672 64.3984 0.437269ZM111.145 2.95009V5.2446H87.8793H64.6136V3.2864V1.32819L87.3946 1.14726C99.9239 1.04761 110.393 0.896171 110.66 0.810946C110.927 0.725722 111.145 1.68811 111.145 2.95009ZM109.431 9.01416C108.641 15.2028 105.957 24.5257 103.456 29.7657C100.668 35.6108 94.9121 41.9568 92.3994 41.9568C91.6439 41.9568 90.4205 42.2853 89.6805 42.6871C88.7008 43.2188 87.6952 43.2227 85.9793 42.7016C80.4039 41.0069 74.9869 34.6957 71.6903 26.0539C69.7198 20.8886 67.2252 10.4938 67.2071 7.37522L67.1987 5.90018H88.5133H109.828L109.431 9.01416ZM65.2457 10.3928C66.1259 11.0523 67.0345 12.5254 67.2646 13.6655L67.6827 15.7391L65.4512 14.3401C64.2233 13.5704 62.0499 12.9096 60.621 12.8716C58.5316 12.8158 57.7192 13.1607 56.4712 14.6324C55.6175 15.6387 54.9196 16.9925 54.9196 17.6402C54.9196 20.1668 58.0113 23.3621 64.3118 27.3473C67.8547 29.5887 71.8602 32.6188 73.2129 34.0814C75.3734 36.4172 75.6493 37.0761 75.4748 39.4919C75.2409 42.7474 73.1289 44.4237 70.2019 43.6784C66.6248 42.7678 66.3307 37.6956 69.8542 37.6956C70.9916 37.6956 71.457 38.1092 71.6179 39.2624C71.804 40.5985 71.6244 40.7722 70.3939 40.4464C69.3637 40.173 69.1504 40.2654 69.6474 40.7696C70.7558 41.8939 72.3689 40.843 72.3689 38.9962C72.3689 36.7516 70.1877 34.7979 63.0697 30.6665C50.9224 23.6145 47.6542 18.0768 52.496 12.747C56.2089 8.65949 61.6026 7.66368 65.2457 10.3928ZM120.397 9.25803C123.047 10.6393 125.383 13.3744 126.047 15.8741C127.338 20.7391 124.22 24.4595 113.77 30.5262C104.956 35.6417 102.469 38.5098 104.997 40.6385C106.072 41.5431 107.914 41.096 107.914 39.9304C107.914 39.4014 107.607 39.4322 106.895 40.0314C106.054 40.7394 105.782 40.7348 105.339 40.0071C104.501 38.6311 105.312 37.3678 107.034 37.3678C109.94 37.3678 109.886 41.789 106.962 43.1401C103.837 44.585 100.805 42.0283 100.805 37.9493C100.805 35.9491 106.372 30.7786 112.171 27.3945C118.544 23.6748 121.485 20.5182 121.485 17.3977C121.485 12.6906 115.569 11.0006 111.025 14.4089L109.164 15.8046L109.597 13.9664C110.171 11.5329 111.068 10.4649 113.407 9.43111C115.821 8.36383 118.551 8.29631 120.397 9.25803ZM82.419 15.3254C80.8014 17.6245 79.4778 19.6699 79.4778 19.8698C79.4778 20.0698 80.3451 20.8597 81.4044 21.6255L83.3315 23.0172L84.6338 20.8506L85.936 18.6839L85.938 25.7313L85.9405 32.7788H89.5926H93.2447L92.8272 26.3869C92.5978 22.8717 92.4084 18.0034 92.4065 15.5699L92.4032 11.1448H88.8817H85.3595L82.419 15.3254ZM119.253 14.7209C122.562 18.0775 120.7 20.8243 110.927 27.0031L104.199 31.2565L105.722 27.763C106.56 25.8408 107.581 22.8645 107.991 21.1482C108.855 17.5255 111.235 14.6331 114.029 13.809C117.069 12.9122 117.554 12.9968 119.253 14.7209ZM65.3025 15.252C66.9886 16.4051 67.7345 17.6153 68.6366 20.6605C69.2752 22.8186 70.3764 25.966 71.0834 27.6554C71.7904 29.3449 72.3689 30.8855 72.3689 31.0782C72.3689 31.7259 59.1371 22.8455 57.6662 21.2105C53.1565 16.198 59.4745 11.268 65.3025 15.252ZM196.717 35.0733C197.35 37.2367 198.547 40.2602 199.377 41.7929L200.886 44.5791H198.669C196.62 44.5791 196.453 44.7332 196.453 46.616C196.453 48.2038 196.227 48.565 195.43 48.2549C194.868 48.036 193.85 47.857 193.168 47.857C192.186 47.857 191.929 47.3876 191.929 45.5966C191.929 43.346 191.915 43.3355 188.677 43.1382L185.424 42.9402L187.119 39.4978C189.003 35.6718 194.352 29.6805 195.091 30.5695C195.352 30.8828 196.084 32.9099 196.717 35.0733ZM86.634 45.651C84.7721 48.0517 84.8309 50.0807 86.7484 49.6054C88.196 49.2468 91.0409 50.7691 90.3093 51.5112C89.5157 52.3156 84.9026 52.5306 83.1493 51.8449C81.7798 51.3099 81.3785 50.7664 81.5336 49.6585C81.6739 48.6542 82.1114 48.249 82.9076 48.386C83.9429 48.5644 83.9196 48.4293 82.7027 47.1949C80.8453 45.3107 81.9976 43.9235 85.4203 43.9235H87.9731L86.634 45.651ZM189.101 44.2992L190.959 44.6742L190.745 49.216C190.51 54.1944 190.601 54.1158 185.951 53.3363C183.211 52.8767 183.098 52.4663 184.285 47.2512C185.083 43.7419 185.396 43.5505 189.101 44.2992ZM202.674 47.1208C203.162 47.8275 205.001 50.1174 206.76 52.208C208.519 54.2993 209.842 56.1277 209.7 56.2713C209.443 56.5322 196.992 55.1785 196.673 54.8553C196.581 54.7615 196.683 52.5273 196.902 49.8906L197.298 45.0957L199.542 45.4655C200.776 45.6687 202.186 46.4134 202.674 47.1208ZM186.554 46.3164C186.312 46.5629 186.112 47.4774 186.112 48.3487C186.112 50.1633 187.599 50.063 187.95 48.2248C188.198 46.9294 187.24 45.6202 186.554 46.3164ZM199.479 48.2831C198.817 48.9551 198.947 51.7904 199.641 51.7904C200.519 51.7904 201.208 49.1406 200.513 48.4359C200.188 48.1055 199.722 48.0366 199.479 48.2831ZM195.441 52.6276C195.394 56.2025 194.789 55.878 203.728 57.0718C206.84 57.4874 209.842 57.65 210.399 57.4336C210.982 57.2068 212.378 57.789 213.698 58.8103C215.208 59.9786 216.646 60.5293 217.928 60.4303C220.428 60.2375 221.657 61.3055 221.657 63.6708C221.657 66.8254 219.336 68.524 215.445 68.2172C214.218 68.1202 213.971 68.7122 213.01 74.0394C212.421 77.3008 211.757 81.3228 211.533 82.9775C211.178 85.607 210.794 86.195 208.475 87.653C207.017 88.5702 205.205 89.8912 204.448 90.5894C203.087 91.8454 203.051 91.8448 200.894 90.5107C199.695 89.7699 198.205 89.1622 197.584 89.1609C196.204 89.1576 196.172 87.9841 197.422 83.2581C198.791 78.0843 198.697 77.5303 196.354 77.0078C195.132 76.7357 192.834 75.0732 190.618 72.8587C186.536 68.7803 184.339 64.013 183.702 57.8545L183.346 54.4127L185.214 54.4901C187.164 54.5714 191.377 55.5115 190.396 55.6465C189.24 55.8052 191.495 57.69 192.816 57.6696C194.138 57.65 194.144 57.6133 192.987 56.7237C191.853 55.8524 191.841 55.6236 192.786 52.8112C193.338 51.1683 193.54 49.8237 193.236 49.8237C192.932 49.8237 192.536 50.1928 192.357 50.6432C192.169 51.1172 192.01 50.9605 191.98 50.2721C191.941 49.3504 192.331 49.1282 193.706 49.2888C195.375 49.4835 195.481 49.6861 195.441 52.6276ZM86.1551 53.1114C87.6363 53.1173 89.285 53.4123 89.8182 53.767C90.6796 54.3413 90.6796 54.4888 89.8182 55.0972C88.4998 56.0281 82.7079 55.4656 82.0041 54.3387C81.1303 52.9397 81.31 52.2644 82.439 52.7037C83.0013 52.9226 84.6732 53.1062 86.1551 53.1114ZM125.843 62.6953C144.334 71.1083 165.626 78.9699 180.296 82.7998C185.754 84.2244 186.436 84.5653 186.436 85.8712C186.436 87.1115 185.295 87.8556 179.103 90.6543C175.07 92.4768 171.616 94.376 171.427 94.8742C171.239 95.3731 171.734 96.4817 172.527 97.3379C173.32 98.194 173.793 99.184 173.577 99.5373C173.362 99.8907 171.295 101.301 168.985 102.672C166.124 104.37 164.873 105.488 165.063 106.176C166.138 110.061 166.837 115.671 166.927 121.131C167.019 126.667 166.761 128.375 164.977 134.065C160.988 146.786 157.866 161.475 156.332 174.74L155.57 181.324L151.651 183.409C149.497 184.556 147.613 185.372 147.467 185.224C146.803 184.55 150.144 159.406 152.566 146.849C154.132 138.729 158.234 121.927 160.556 114.123C161.459 111.088 162.082 108.487 161.94 108.343C161.798 108.199 161.341 109.134 160.922 110.421C160.504 111.707 160.029 112.759 159.867 112.759C158.269 112.759 146.504 105.567 137.307 98.9689C124.454 89.7456 106.597 74.4176 102.113 68.7567L100.204 66.3475L103.202 59.7747L106.2 53.2019L111.252 55.7783C114.031 57.1957 120.597 60.3083 125.843 62.6953ZM91.0674 57.4605C91.8636 58.1764 89.6068 59.1237 87.0095 59.163C84.29 59.205 82.0629 58.2446 82.0629 57.0305C82.0629 56.5473 90.5006 56.9505 91.0674 57.4605ZM199.038 62.104C197.074 63.1948 196.654 63.6196 197.745 63.4118C198.634 63.242 199.87 62.8867 200.492 62.6219C202.116 61.9289 202 64.5198 200.33 66.2131C199.619 66.9342 199.317 67.5243 199.659 67.5243C201.012 67.5243 202.915 64.5774 202.915 62.4835C202.915 59.9714 202.883 59.9688 199.038 62.104ZM196.179 84.5587C195.582 87.9081 195.117 88.7852 192.996 90.5592C190.222 92.878 189.925 92.7265 188.586 88.3158C187.927 86.1413 187.991 85.6194 189.109 84.1005C190.314 82.4629 193.609 80.7957 195.858 80.6856C196.754 80.6417 196.793 81.1163 196.179 84.5587ZM215.374 83.953C215.098 84.2113 214.217 84.6223 213.417 84.8675C212.265 85.2209 211.963 85.0543 211.963 84.067C211.963 82.2603 212.536 81.941 214.307 82.7598C215.17 83.1584 215.65 83.6953 215.374 83.953ZM228.572 84.9449C246.768 88.7577 283.198 110.86 338.629 151.718C364.33 170.662 378.353 181.803 378.59 183.467C379.204 187.782 375.105 202.031 370.559 211.382C367.974 216.701 360.823 227.531 359.959 227.435C359.5 227.385 349.323 215.242 334.729 197.328C317.804 176.554 305.306 161.59 295.103 149.883C286.993 140.576 286.558 139.931 285.516 135.677C283.612 127.905 280.114 122.13 273.091 115.166C262.06 104.226 245.443 95.8438 230.424 93.6411C223.917 92.6865 215.095 93.5395 208.631 95.7481C206.471 96.4869 204.631 97.0022 204.541 96.894C204.452 96.7859 204.189 95.6242 203.955 94.313C203.544 92.0015 203.634 91.8599 206.939 89.6689C211.165 86.867 215.189 85.2209 219.395 84.5738C221.173 84.3011 222.857 84.0402 223.139 83.9956C223.42 83.9503 225.865 84.3778 228.572 84.9449ZM187.683 89.5352C188.032 90.9473 187.534 91.8448 184.635 95.0204C182.729 97.1084 180.319 100.184 179.279 101.853C178.239 103.523 177.23 104.89 177.037 104.891C176.844 104.891 176.343 103.59 175.924 101.999C175.505 100.408 174.446 98.2694 173.572 97.2461L171.983 95.3862L179.209 91.6507C183.184 89.5962 186.622 87.8995 186.85 87.8812C187.078 87.8622 187.453 88.6069 187.683 89.5352ZM202.106 92.76C204.101 95.1122 204.001 97.8905 201.859 99.5996C198.284 102.453 192.573 100.578 191.564 96.2221C191.231 94.7824 191.546 94.0351 193.187 92.3706C195.003 90.5284 195.516 90.3455 197.937 90.6746C199.764 90.923 201.127 91.6048 202.106 92.76ZM189.651 92.8524C190.87 94.5431 190.075 96.8304 187.959 97.7194C185.343 98.8188 181.713 103.302 180.871 106.473C179.957 109.914 180.497 112.995 182.57 116.173L184.251 118.749L182.61 123.784C178.364 136.822 175.594 153.094 174.374 172.163L173.614 184.038L168.392 182.852C165.52 182.199 161.861 181.261 160.262 180.768L157.353 179.87L157.534 176.634C157.854 170.902 160.949 153.329 163.244 144.227C168.733 122.446 176.598 104.956 185.428 94.8945C186.931 93.1815 188.323 91.7805 188.52 91.7805C188.717 91.7805 189.226 92.263 189.651 92.8524ZM233.01 95.0918C247.113 97.6256 263.762 106.853 274.085 117.855C289.554 134.346 288.285 150.367 270.531 162.723C265.509 166.218 257.85 169.754 249.124 172.606C238.415 176.105 237.592 176.19 236.089 173.948C233.017 169.365 233.044 169.046 236.931 163.79C240.391 159.113 250.104 143.307 250.083 142.389C250.063 141.533 240.437 134.945 235.877 132.666C230.931 130.194 226.126 128.331 225.731 128.731C225.594 128.87 226.856 129.685 228.534 130.541C231.148 131.875 231.71 132.522 232.449 135.049C233.719 139.395 238.46 158.386 238.46 159.127C238.46 159.478 236.997 161.727 235.207 164.124C232.537 167.702 231.625 168.483 230.118 168.483C226.261 168.483 224.2 169.286 223.245 171.16C220.771 176.014 223.382 182.668 228.243 183.899C229.656 184.257 230.401 183.93 232.228 182.147C236.829 177.657 237.601 177.12 239.767 176.901L241.984 176.678L242.777 180.939C244.268 188.952 244.65 188.374 236.36 190.674C225.404 193.715 220.934 194.356 210.671 194.361C202.073 194.366 192.594 193.22 192.562 192.173C192.556 191.944 192.118 187.921 191.59 183.233C189.311 163.022 189.706 140.866 192.598 126.526C194.708 116.064 194.833 115.776 197.906 114.255C203.133 111.667 203.246 111.689 204.095 115.423C204.512 117.258 204.854 119.114 204.854 119.548C204.854 119.982 202.745 122.541 200.167 125.235C197.588 127.928 194.639 131.754 193.614 133.737C191.431 137.956 191.968 137.513 195.45 132.222C196.83 130.126 199.826 126.675 202.108 124.553L206.259 120.696L205.193 116.978C203.7 111.768 204.062 111.173 208.407 111.691L211.932 112.111L211.642 110.304C210.89 105.623 209.986 96.8462 210.229 96.599C210.379 96.4469 212.357 95.9139 214.626 95.4144C219.655 94.3078 227.845 94.1636 233.01 95.0918ZM209.685 102.106C209.914 104.9 210.244 107.956 210.417 108.897C210.726 110.566 210.635 110.616 206.663 110.961C204.424 111.155 202.102 111.515 201.504 111.762C200.548 112.156 200.573 111.905 201.711 109.699C202.686 107.807 202.921 106.413 202.665 104.052C202.232 100.063 202.638 99.0541 205.113 97.9613C208.948 96.2673 209.226 96.5197 209.685 102.106ZM191.726 99.1059C192.548 99.89 193.221 100.755 193.221 101.029C193.221 101.303 192.304 103.025 191.182 104.855C190.06 106.686 188.497 110.453 187.708 113.226L186.275 118.269L184.302 116.268C179.784 111.684 181.525 102.723 187.671 98.9204C190.132 97.3975 189.923 97.3883 191.726 99.1059ZM175.788 104.294C176.245 105.908 175.777 107.421 172.918 113.588C171.039 117.639 169.188 121.691 168.803 122.593C168.195 124.019 168.096 123.722 168.038 120.298C168.001 118.135 167.559 114.016 167.055 111.144C166.55 108.273 166.293 105.765 166.481 105.572C166.67 105.378 168.474 104.147 170.49 102.837C174.467 100.252 174.661 100.305 175.788 104.294ZM201.476 105.375C201.056 110.512 198.54 113.308 192.802 115.015L191.413 115.428L192.663 109.668C193.351 106.5 194.045 103.466 194.207 102.925C194.42 102.209 195.487 101.932 198.131 101.906L201.762 101.87L201.476 105.375ZM193.221 103.909C193.221 104.089 193.076 104.236 192.898 104.236C192.721 104.236 192.575 104.089 192.575 103.909C192.575 103.728 192.721 103.581 192.898 103.581C193.076 103.581 193.221 103.728 193.221 103.909ZM191.336 110.417C189.583 116.901 189.587 116.938 192.004 116.448C193.86 116.071 193.983 116.154 193.581 117.513C190.85 126.731 188.703 143.964 188.701 156.682C188.701 164.215 189.644 180.004 190.338 184.08L190.705 186.238L187.278 185.842C181.702 185.198 174.872 184.178 174.654 183.956C174.255 183.552 176.443 160.121 177.721 151.11C179.111 141.305 181.268 130.945 183.503 123.333C184.724 119.172 185.012 118.717 186.059 119.286C187.115 119.859 187.36 119.427 188.369 115.216C189.455 110.686 191.898 104.643 192.428 105.18C192.568 105.322 192.077 107.679 191.336 110.417ZM232.952 171.055C233.169 171.75 234.037 173.349 234.88 174.609C236.362 176.825 236.374 176.938 235.227 177.99C234.575 178.589 232.782 179.478 231.242 179.965C228.797 180.739 228.678 180.857 230.299 180.895C231.875 180.932 232.034 181.088 231.351 181.922C230.405 183.079 228.557 183.189 226.731 182.197C224.12 180.78 222.611 173.927 224.404 171.634C225.465 170.277 226.587 169.908 229.854 169.846C231.98 169.805 232.641 170.063 232.952 171.055ZM274.651 173.4C274.651 173.58 274.506 173.727 274.328 173.727C274.151 173.727 274.005 173.58 274.005 173.4C274.005 173.219 274.151 173.072 274.328 173.072C274.506 173.072 274.651 173.219 274.651 173.4ZM276.673 176.186C277.476 177.226 277.454 177.249 276.429 176.434C275.352 175.577 275.01 175.039 275.542 175.039C275.676 175.039 276.185 175.555 276.673 176.186ZM165.089 183.18C172.127 185.285 181.183 186.833 186.48 186.836L190.4 186.839L191.003 190.281L191.606 193.722L195.807 194.503C203.01 195.841 213.776 196.246 220.042 195.416C225.474 194.695 234.864 192.703 237.249 191.764C238.105 191.427 238.674 192.54 240.324 197.781C248.209 222.839 249.202 247.717 244.924 313.037C244.24 323.494 243.478 337.588 243.232 344.357L242.784 356.666L233.062 356.485L223.341 356.305L220.899 352.044C217.321 345.799 210.113 329.637 204.62 315.543C191.434 281.715 182.838 250.527 180.799 229.124C180.353 224.436 179.884 221.486 179.756 222.568C178.988 229.091 182.599 251.199 187.139 267.77C189.722 277.2 189.72 276.176 187.189 291.075C184.41 307.437 182.235 332.114 182.235 347.28V354.011H173.276H164.316L162.66 350.241C149.141 319.468 142.45 286.741 142.59 252.069C142.679 230.047 144.822 212.33 149.806 192.411C151.596 185.26 151.634 185.188 154.32 183.676C155.811 182.837 157.03 181.844 157.03 181.468C157.03 181.094 157.54 180.934 158.161 181.116C158.783 181.297 161.901 182.226 165.089 183.18ZM266.896 197C266.896 197.181 266.751 197.328 266.573 197.328C266.395 197.328 266.25 197.181 266.25 197C266.25 196.82 266.395 196.673 266.573 196.673C266.751 196.673 266.896 196.82 266.896 197ZM267.866 198.639C268.085 199 268.12 199.295 267.942 199.295C267.764 199.295 267.439 199 267.219 198.639C267 198.279 266.965 197.984 267.143 197.984C267.321 197.984 267.646 198.279 267.866 198.639ZM270.147 201.954C271.129 203.815 270.459 203.512 269.165 201.509C268.555 200.563 268.374 199.989 268.765 200.234C269.155 200.479 269.777 201.252 270.147 201.954ZM200.977 310.415C202.86 315.463 205.37 321.933 206.556 324.793C207.741 327.653 208.643 330.047 208.56 330.112C208.477 330.177 206.228 329.968 203.562 329.648C200.896 329.328 195.41 329.259 191.37 329.493L184.026 329.921L184.461 325.085C186.309 304.552 188.444 286.572 189.744 280.586C190.011 279.357 191.032 281.735 193.828 290.092C195.878 296.222 199.095 305.367 200.977 310.415ZM78.8316 305.17C78.8316 305.351 78.977 305.498 79.1547 305.498C79.3324 305.498 79.4778 305.351 79.4778 305.17C79.4778 304.99 79.3324 304.842 79.1547 304.842C78.977 304.842 78.8316 304.99 78.8316 305.17ZM80.1241 305.17C80.1241 305.351 80.2695 305.498 80.4472 305.498C80.625 305.498 80.7704 305.351 80.7704 305.17C80.7704 304.99 80.625 304.842 80.4472 304.842C80.2695 304.842 80.1241 304.99 80.1241 305.17ZM82.2245 305.95C82.8468 306.115 83.8641 306.115 84.4864 305.95C85.1088 305.785 84.5995 305.65 83.3555 305.65C82.1114 305.65 81.6021 305.785 82.2245 305.95ZM89.9797 306.635C91.6684 306.771 94.4306 306.771 96.1193 306.635C97.808 306.5 96.4263 306.39 93.0495 306.39C89.6727 306.39 88.291 306.5 89.9797 306.635ZM288.524 322.237C299.797 325.216 306.998 333.707 308.063 345.281C308.273 347.559 308.513 349.422 308.596 349.422C308.68 349.422 310.309 348.698 312.219 347.814C327.684 340.651 342.547 349.287 341.76 364.98L341.54 369.357L344.878 369.177C346.978 369.064 348.952 369.383 350.199 370.038C352.106 371.038 354.141 373.999 354.144 375.776C354.145 376.317 356.712 377.256 361.18 378.349C375.293 381.801 380.458 386.194 373.557 388.875C369.647 390.394 350.074 391.361 323.768 391.334L296.948 391.306L292.101 385.395C285.894 377.824 273.43 365.554 264.143 357.871C255.996 351.13 255.493 350.204 256.23 343.268C256.847 337.466 258.808 332.881 262.242 329.214C268.653 322.368 278.813 319.671 288.524 322.237ZM208.007 331.688C209.199 332.008 210.155 333.499 212.25 338.303C215.072 344.774 220.456 354.821 222.161 356.797C222.733 357.461 224.061 357.944 225.312 357.944C227.156 357.944 227.474 358.172 227.474 359.501C227.474 360.357 227.655 361.98 227.878 363.107C228.248 364.985 228.141 365.155 226.585 365.155C224.579 365.155 224.591 365.068 225.974 369.515C226.57 371.435 226.934 373.085 226.782 373.18C226.629 373.275 223.697 374.738 220.266 376.43C213.507 379.763 209.378 382.952 209.378 384.84C209.378 386.854 213.39 387.712 222.627 387.675C227.248 387.657 233.587 387.27 236.715 386.816C243.992 385.758 244.705 384.935 243.618 378.851C243.213 376.587 242.972 372.358 243.081 369.453C243.272 364.419 243.214 364.162 241.84 363.962C240.791 363.81 240.373 363.276 240.302 361.996L240.205 360.239L239.944 361.957C239.718 363.446 239.288 363.731 236.719 364.087C229.611 365.076 229.413 364.98 228.44 360.075L228.017 357.944H235.743H243.469L243.873 355.895C244.095 354.768 244.277 351.949 244.277 349.629V345.413L247.516 347.253C249.298 348.266 253.494 351.159 256.84 353.683C274.179 366.759 291.143 384.535 308.021 407.312L313.925 415.278L311.977 416.235C307.227 418.568 304.596 424.828 301.365 441.488C300.102 448.001 298.49 454.898 297.784 456.815C294.652 465.316 290.13 462.613 275.74 443.636C266.279 431.161 262.084 426.475 257.748 423.538C250.221 418.439 246.646 420.177 241.417 431.478C239.693 435.204 236.016 442.972 233.246 448.741C226.056 463.716 220.659 470.047 215.085 470.047C211.338 470.047 207.857 466.353 199.341 453.339C188.999 437.536 185.155 433.991 178.357 433.991C172.341 433.991 166.814 438.222 158.871 448.908C148.761 462.51 140.889 468.35 132.76 468.281C122.103 468.19 113.991 457.891 109.761 439.079C107.673 429.793 105.867 426.78 102.39 426.78C99.3468 426.78 94.9495 431.087 86.0246 442.814C74.7174 457.669 70.8456 461.271 67.5574 459.99C64.8566 458.939 62.9553 448.573 63.7502 439.235C64.1619 434.402 64.264 434.175 69.7909 425.796C76.4287 415.732 84.6874 404.442 93.0476 394.001C100.282 384.966 120.287 364.527 127.948 358.343C137.353 350.752 154.721 339.791 156.429 340.368C156.798 340.493 158.435 343.761 160.068 347.631L163.036 354.666H165.526C167.531 354.666 168.017 354.906 168.017 355.895C168.017 356.571 168.196 358.033 168.414 359.142C168.772 360.956 168.626 361.204 166.96 361.609C164.144 362.293 164.135 362.317 165.416 366.094L166.614 369.626L160.045 372.944C146.214 379.928 145.11 383.413 156.384 384.513C161.337 384.996 177.909 383.83 180.845 382.792C183.47 381.864 183.794 380.438 182.894 373.776C182.497 370.831 182.369 366.655 182.61 364.495C182.986 361.12 182.9 360.566 181.995 360.566C180.306 360.566 180.526 355.585 182.235 355.132C183.443 354.811 183.531 354.216 183.575 346.041C183.602 341.23 183.819 335.966 184.06 334.343L184.497 331.393L189.344 331.019C194.542 330.618 205.484 331.01 208.007 331.688ZM87.7443 346.44C94.375 349.496 100.158 357.153 100.158 362.877V364.299L103.551 363.109C105.417 362.455 107.608 361.911 108.419 361.899C110.245 361.872 114.259 363.534 115.811 364.958C116.908 365.965 116.578 366.431 109.677 373.62C101.129 382.525 95.0652 389.479 88.5844 397.814L83.9022 403.834L62.1403 403.831C30.128 403.827 10.8917 402.321 4.14015 399.292C-0.357248 397.274 -0.471638 393.622 3.89069 391.365C7.64358 389.422 13.9001 388.121 19.5362 388.11L24.5448 388.101V385.923C24.5448 373.804 38.9347 365.827 50.8312 371.351C52.8825 372.304 55.0165 373.502 55.5729 374.012C56.4848 374.849 56.5824 374.311 56.5598 368.573C56.5255 359.718 57.8026 356.215 62.9818 350.958C66.2209 347.67 67.7299 346.668 71.1177 345.552C76.8475 343.666 82.3634 343.961 87.7443 346.44ZM180.296 357.876V360.43L175.089 360.897C172.225 361.154 169.793 361.259 169.686 361.13C169.578 361 169.3 359.64 169.068 358.108L168.648 355.322H174.472H180.296V357.876ZM169.483 365.585C169.046 365.765 168.173 365.776 167.544 365.61C166.916 365.443 167.274 365.296 168.34 365.283C169.406 365.27 169.921 365.406 169.483 365.585ZM170.427 367.518C170.212 367.736 169.655 367.759 169.189 367.57C168.673 367.361 168.826 367.205 169.579 367.174C170.26 367.146 170.641 367.3 170.427 367.518ZM229.574 368.867C229.13 369.05 228.403 369.05 227.958 368.867C227.514 368.686 227.878 368.537 228.766 368.537C229.655 368.537 230.019 368.686 229.574 368.867ZM230.867 370.834C230.423 371.016 229.696 371.016 229.251 370.834C228.807 370.652 229.17 370.504 230.059 370.504C230.947 370.504 231.311 370.652 230.867 370.834Z"/>
</mask>
<path fill-rule="evenodd" clip-rule="evenodd" d="M64.3984 0.437269C64.1612 0.677209 63.9673 2.00475 63.9673 3.38736C63.9673 5.46291 64.1922 5.90018 65.2599 5.90018C66.2674 5.90018 66.5524 6.33745 66.5524 7.88395V9.86706L64.5063 8.79389C57.9131 5.33507 48.1441 11.8856 49.4166 18.9114C50.0493 22.4023 55.7733 27.7315 63.4736 31.9986C69.7069 35.4529 71.3439 36.7122 69.5989 36.7122C68.3859 36.7122 66.5524 38.833 66.5524 40.2353C66.5524 42.0971 69.5065 44.5791 71.7226 44.5791C74.4027 44.5791 76.8927 42.0309 76.8927 39.288V37.215L79.4798 39.5863C80.9022 40.8902 82.4216 41.9568 82.8546 41.9568C83.2882 41.9568 82.989 42.4216 82.1896 42.9893C81.1976 43.6947 80.7387 44.682 80.7445 46.1033C80.749 47.248 80.7329 48.7748 80.709 49.4959C80.6004 52.7732 81.5905 58.1102 82.4946 59.1237C83.042 59.7373 84.1142 60.33 84.8768 60.4401C86.1105 60.6184 86.2456 61.0026 86.0976 63.9186C85.8882 68.0428 84.277 70.4016 81.4774 70.6828C79.0532 70.926 78.6202 71.7121 79.4255 74.4078L80.0129 76.3745L80.0685 74.2439C80.1222 72.1919 80.2249 72.1113 82.8708 72.0615C84.3817 72.0333 85.2742 71.8681 84.8554 71.6944C84.3397 71.4813 84.6008 70.6199 85.6633 69.0327C86.793 67.344 87.2331 65.7922 87.2331 63.499C87.2331 60.5627 87.3559 60.3129 88.8029 60.3129C90.8729 60.3129 92.6947 58.5094 91.768 57.3766C91.3944 56.9197 91.2716 56.0622 91.4952 55.4708C91.7188 54.8795 91.5644 53.9833 91.1514 53.4792C90.6383 52.8518 90.615 52.429 91.079 52.1379C92.2417 51.4096 91.8268 50.4741 90.0359 49.7831C89.0129 49.3884 88.5541 48.8823 88.905 48.5349C91.3705 46.0928 93.0262 50.2262 93.0398 58.8589C93.0502 65.3831 94.0842 69.1579 96.0902 69.9918C96.785 70.2809 95.0478 70.6225 91.757 70.8441L86.2637 71.2132L93.2111 71.3358L100.158 71.4577V73.4048V75.3518L91.9185 75.557L83.6786 75.7616L92.2417 75.9045L100.805 76.0467V73.0966C100.805 70.4462 100.652 70.1466 99.3015 70.1466C96.5859 70.1466 94.9062 67.4646 94.3007 62.1623C93.3739 54.045 93.4605 53.1658 95.1499 53.5861C96.4909 53.9198 96.467 53.8358 94.8423 52.5063C93.8735 51.7131 92.7716 49.9004 92.3942 48.4772C91.7175 45.9289 90.9278 45.255 90.1387 46.5504C89.5247 47.5581 85.9405 49.2875 85.9405 48.5762C85.9405 48.232 86.9203 46.8966 88.1172 45.609C89.8123 43.7859 90.7973 43.268 92.5693 43.268C95.504 43.268 97.1378 44.7456 98.886 48.9793L100.297 52.3962L98.7406 55.2073C97.8843 56.7532 96.6835 58.7881 96.0715 59.7288C95.0213 61.3441 95.0206 61.4897 96.0669 62.3511C96.8748 63.0152 97.0383 63.0323 96.6719 62.414C96.0831 61.4202 101.286 51.7904 102.412 51.7904C102.814 51.7904 103.664 52.1772 104.302 52.6506C105.391 53.4576 105.26 53.9198 102.192 60.1208L98.9222 66.731L107.457 75.167C121.849 89.3916 141.95 104.674 154.626 111.028C157.37 112.403 159.612 113.724 159.608 113.963C159.604 114.203 159.154 115.873 158.607 117.676C154.616 130.825 151.127 146.328 148.969 160.506C147.17 172.329 145.69 186.699 146.218 187.234C146.416 187.435 147.339 187.093 148.269 186.474C149.2 185.856 150.089 185.479 150.244 185.636C150.399 185.793 149.381 190.54 147.982 196.184C145.213 207.356 143.32 217.884 142.062 229.124C141.159 237.185 140.924 264.746 141.699 271.572C142.184 275.839 142.152 275.997 140.792 275.997C139.976 275.997 138.378 277.101 136.998 278.617L134.614 281.237L133.889 278.781C132.838 275.224 129.733 270.545 127.043 268.463C122.595 265.022 115.386 265.799 109.153 270.391C103.919 274.247 102.64 279.871 105.625 285.9L107.214 289.109L104.494 289.119C97.775 289.144 90.7171 292.29 89.0491 296.004C88.5127 297.198 87.5491 297.665 84.5 298.211C80.0692 299.002 76.1321 300.79 75.6933 302.208C75.46 302.962 75.6383 302.931 76.4875 302.069C77.636 300.904 80.6243 299.878 84.9711 299.157C86.9261 298.833 88.2652 297.969 90.4644 295.613C94.0557 291.766 98.7612 290.135 105.088 290.544C107.353 290.69 109.206 290.757 109.206 290.695C109.206 290.631 108.188 288.864 106.944 286.768C104.439 282.548 104.028 279.181 105.635 276.031C107.021 273.311 111.496 269.667 114.89 268.493C124.266 265.253 130.318 269.843 134.164 283.111C134.313 283.624 135.303 282.658 136.516 280.817C138.005 278.558 139.105 277.578 140.317 277.436C141.997 277.238 142.034 277.32 142.786 283.008C143.207 286.183 144.203 292.365 145.001 296.745L146.451 304.71L144.147 305.094C142.88 305.305 132.973 305.79 122.132 306.171C111.29 306.554 101.984 306.988 101.451 307.138C100.263 307.473 127.053 306.94 138.612 306.399L147.013 306.006L148.873 313.783C149.896 318.06 151.948 325.353 153.433 329.99L156.133 338.42L152.963 340.151C141.71 346.297 132.613 352.569 123.587 360.402C120.575 363.016 117.888 365.155 117.616 365.155C117.343 365.155 116.72 364.667 116.233 364.07C114.013 361.355 107.92 360.458 103.228 362.157C100.823 363.027 100.805 363.021 100.798 361.309C100.78 356.359 94.6807 348.683 88.2025 345.458C85.4261 344.076 84.0605 343.849 78.5084 343.849C72.6435 343.849 71.7 344.027 68.3096 345.769C66.2551 346.826 63.2539 349.121 61.6401 350.872C57.3217 355.555 56.0137 359.009 55.6899 366.59L55.4185 372.942L53.0686 371.381C48.0943 368.078 40.0178 367.594 34.1077 370.247C28.3973 372.809 23.9419 379.07 23.9128 384.573L23.8986 387.273L17.2743 387.601C3.85256 388.266 -3.83548 393.9 1.94541 398.834C4.45617 400.977 6.94237 401.659 16.4665 402.816C28.005 404.219 36.1305 404.635 60.5951 405.075L82.7505 405.473L78.9427 410.734C73.3486 418.462 61.7448 436.266 55.443 446.79C46.3888 461.909 27.2915 497.309 27.8718 497.897C28.003 498.03 30.2889 493.967 32.9515 488.868C40.7139 474.005 45.5176 465.379 54.2022 450.708L62.3517 436.941L62.7523 445.791C63.1757 455.133 64.326 459.661 66.588 460.888C70.7086 463.126 73.8165 460.325 89.1693 440.54C96.319 431.327 99.8528 428.091 102.766 428.091C105.337 428.091 106.374 430.158 108.897 440.323C112.535 454.974 118.052 463.993 125.697 467.787C128.717 469.286 129.868 469.504 133.618 469.289C141.864 468.816 149.276 463.395 158.855 450.83C167.12 439.988 171.781 435.96 177.232 434.949C179.155 434.592 180.396 434.863 183.187 436.248C187.512 438.395 190.623 441.894 196.912 451.691C204.057 462.82 205.497 464.906 207.702 467.317C211.866 471.87 215.736 472.51 220.513 469.437C225.866 465.993 231.267 456.822 242.277 432.473C246.104 424.01 247.709 422.19 251.346 422.19C256.361 422.19 262.06 427.566 274.881 444.385C293.392 468.671 297.059 468.715 301.731 444.713C305.122 427.29 306.807 422.387 310.621 418.845C314.175 415.544 314.003 415.405 322.313 428.294C336.332 450.035 345.33 465.569 355.919 486.308C359.288 492.907 362.183 498.167 362.351 497.996C362.751 497.591 350.193 473.44 342 458.855C328.195 434.285 317.976 418.779 298.995 393.605L297.809 392.034L325.168 392.033C351.707 392.031 367.477 391.365 372.339 390.038C383.039 387.121 376.071 380.225 359.149 376.986C355.237 376.237 354.828 376.005 354.462 374.314C353.623 370.441 348.544 367.373 344.373 368.219L342.51 368.597V363.703C342.51 354.336 337.399 347.564 328.472 345.101C322.737 343.519 318.608 344.117 310.035 347.769C309.067 348.181 308.904 347.872 308.904 345.627C308.904 341.563 306.592 335.007 303.891 331.409C294.941 319.491 277.51 316.457 265.468 324.721C258.479 329.517 255.263 336.091 255.263 345.583V350.685L250.093 347.295L244.923 343.905V340.272C244.923 338.273 245.822 323.363 246.921 307.137C248.296 286.822 248.95 271.971 249.021 259.445L249.124 241.252H252.704C260.094 241.251 267.689 238.014 272.006 233.026C279.383 224.503 279.462 218.435 272.348 206.506C271.381 204.884 270.91 203.854 271.303 204.219C272.899 205.702 277.832 215.362 278.556 218.42L279.331 221.697L281.676 219.378C286.406 214.704 292.92 213.662 301.121 216.271C303.416 217.001 305.393 217.498 305.514 217.374C305.636 217.251 303.223 213.959 300.153 210.059C297.082 206.159 291.641 198.675 288.061 193.428C284.481 188.182 280.556 182.488 279.339 180.775C278.122 179.062 277.275 177.661 277.457 177.661C277.639 177.661 281.93 183.487 286.994 190.609C307.881 219.98 309.97 221.85 321.829 221.784C331.031 221.733 338.785 218.468 342.12 213.242C342.867 212.07 343.646 211.108 343.85 211.103C344.054 211.099 347.637 215.225 351.812 220.273C355.987 225.321 359.67 229.451 359.995 229.451C360.896 229.451 365.845 222.803 369.19 217.098C374.37 208.265 378.623 195.501 379.601 185.856L380 181.922L374.988 178.012C349.121 157.83 321.555 137.595 299.331 122.476C287.572 114.477 285.047 112.497 285.656 111.755C286.996 110.116 288.639 110.072 295.405 111.495C306.007 113.723 311.537 112.507 317.484 106.637C322.011 102.167 323.424 98.4845 323.433 91.125C323.442 84.3627 322.344 81.1261 318.688 77.1337C315.138 73.2573 313.107 72.6941 296.004 70.8434C285.409 69.6975 282.882 67.5269 279.552 56.7119C277.223 49.1485 274.914 45.7821 270.58 43.6312C265.526 41.1229 259.968 41.2036 249.576 43.9347C237.996 46.9785 237.454 46.772 232.632 37.4904C230.194 32.7978 225.738 28.4015 221.192 26.2033C215.6 23.4998 204.423 23.76 198.719 26.7271C190.038 31.2421 184.296 39.5168 182.579 49.9876C181.854 54.4127 180.827 52.7574 181.053 47.5279C181.262 42.6937 180.825 41.1826 180.057 44.0874C179.843 44.8984 179.663 47.4066 179.659 49.6598C179.65 53.3232 179.787 53.7572 180.942 53.7572C181.943 53.7572 182.235 54.1944 182.235 55.6918C182.235 64.4739 187.635 74.0859 194.526 77.569C197.867 79.2577 198.037 79.9802 195.094 79.9802C192.762 79.9802 189.997 81.0652 188.354 82.6261C187.061 83.8546 186.916 83.8356 178.335 81.3097C160.359 76.0166 140.527 68.0481 113.141 55.1142C107.046 52.2356 101.65 50.0387 101.151 50.2335C100.522 50.478 99.995 49.7503 99.4418 47.8773C99.0016 46.3872 97.841 44.3713 96.8625 43.3984L95.0833 41.629L97.6206 39.7836L100.158 37.9381V39.6498C100.158 42.0211 102.842 44.5791 105.329 44.5791C107.509 44.5791 110.499 42.1069 110.499 40.3048C110.499 38.6599 109.26 36.7122 108.214 36.7122C106.161 36.7122 107.52 35.4876 113.245 32.1802C124.2 25.8513 127.302 22.6763 127.302 17.791C127.302 14.1853 125.93 11.5827 122.944 9.52485C119.894 7.42242 115.631 7.2959 112.526 9.21608C111.331 9.95491 110.275 10.4702 110.18 10.3607C109.621 9.71956 110.787 5.90018 111.541 5.90018C112.173 5.90018 112.438 5.02826 112.438 2.95009V0H88.6335C75.5408 0 64.6349 0.196672 64.3984 0.437269ZM111.145 2.95009V5.2446H87.8793H64.6136V3.2864V1.32819L87.3946 1.14726C99.9239 1.04761 110.393 0.896171 110.66 0.810946C110.927 0.725722 111.145 1.68811 111.145 2.95009ZM109.431 9.01416C108.641 15.2028 105.957 24.5257 103.456 29.7657C100.668 35.6108 94.9121 41.9568 92.3994 41.9568C91.6439 41.9568 90.4205 42.2853 89.6805 42.6871C88.7008 43.2188 87.6952 43.2227 85.9793 42.7016C80.4039 41.0069 74.9869 34.6957 71.6903 26.0539C69.7198 20.8886 67.2252 10.4938 67.2071 7.37522L67.1987 5.90018H88.5133H109.828L109.431 9.01416ZM65.2457 10.3928C66.1259 11.0523 67.0345 12.5254 67.2646 13.6655L67.6827 15.7391L65.4512 14.3401C64.2233 13.5704 62.0499 12.9096 60.621 12.8716C58.5316 12.8158 57.7192 13.1607 56.4712 14.6324C55.6175 15.6387 54.9196 16.9925 54.9196 17.6402C54.9196 20.1668 58.0113 23.3621 64.3118 27.3473C67.8547 29.5887 71.8602 32.6188 73.2129 34.0814C75.3734 36.4172 75.6493 37.0761 75.4748 39.4919C75.2409 42.7474 73.1289 44.4237 70.2019 43.6784C66.6248 42.7678 66.3307 37.6956 69.8542 37.6956C70.9916 37.6956 71.457 38.1092 71.6179 39.2624C71.804 40.5985 71.6244 40.7722 70.3939 40.4464C69.3637 40.173 69.1504 40.2654 69.6474 40.7696C70.7558 41.8939 72.3689 40.843 72.3689 38.9962C72.3689 36.7516 70.1877 34.7979 63.0697 30.6665C50.9224 23.6145 47.6542 18.0768 52.496 12.747C56.2089 8.65949 61.6026 7.66368 65.2457 10.3928ZM120.397 9.25803C123.047 10.6393 125.383 13.3744 126.047 15.8741C127.338 20.7391 124.22 24.4595 113.77 30.5262C104.956 35.6417 102.469 38.5098 104.997 40.6385C106.072 41.5431 107.914 41.096 107.914 39.9304C107.914 39.4014 107.607 39.4322 106.895 40.0314C106.054 40.7394 105.782 40.7348 105.339 40.0071C104.501 38.6311 105.312 37.3678 107.034 37.3678C109.94 37.3678 109.886 41.789 106.962 43.1401C103.837 44.585 100.805 42.0283 100.805 37.9493C100.805 35.9491 106.372 30.7786 112.171 27.3945C118.544 23.6748 121.485 20.5182 121.485 17.3977C121.485 12.6906 115.569 11.0006 111.025 14.4089L109.164 15.8046L109.597 13.9664C110.171 11.5329 111.068 10.4649 113.407 9.43111C115.821 8.36383 118.551 8.29631 120.397 9.25803ZM82.419 15.3254C80.8014 17.6245 79.4778 19.6699 79.4778 19.8698C79.4778 20.0698 80.3451 20.8597 81.4044 21.6255L83.3315 23.0172L84.6338 20.8506L85.936 18.6839L85.938 25.7313L85.9405 32.7788H89.5926H93.2447L92.8272 26.3869C92.5978 22.8717 92.4084 18.0034 92.4065 15.5699L92.4032 11.1448H88.8817H85.3595L82.419 15.3254ZM119.253 14.7209C122.562 18.0775 120.7 20.8243 110.927 27.0031L104.199 31.2565L105.722 27.763C106.56 25.8408 107.581 22.8645 107.991 21.1482C108.855 17.5255 111.235 14.6331 114.029 13.809C117.069 12.9122 117.554 12.9968 119.253 14.7209ZM65.3025 15.252C66.9886 16.4051 67.7345 17.6153 68.6366 20.6605C69.2752 22.8186 70.3764 25.966 71.0834 27.6554C71.7904 29.3449 72.3689 30.8855 72.3689 31.0782C72.3689 31.7259 59.1371 22.8455 57.6662 21.2105C53.1565 16.198 59.4745 11.268 65.3025 15.252ZM196.717 35.0733C197.35 37.2367 198.547 40.2602 199.377 41.7929L200.886 44.5791H198.669C196.62 44.5791 196.453 44.7332 196.453 46.616C196.453 48.2038 196.227 48.565 195.43 48.2549C194.868 48.036 193.85 47.857 193.168 47.857C192.186 47.857 191.929 47.3876 191.929 45.5966C191.929 43.346 191.915 43.3355 188.677 43.1382L185.424 42.9402L187.119 39.4978C189.003 35.6718 194.352 29.6805 195.091 30.5695C195.352 30.8828 196.084 32.9099 196.717 35.0733ZM86.634 45.651C84.7721 48.0517 84.8309 50.0807 86.7484 49.6054C88.196 49.2468 91.0409 50.7691 90.3093 51.5112C89.5157 52.3156 84.9026 52.5306 83.1493 51.8449C81.7798 51.3099 81.3785 50.7664 81.5336 49.6585C81.6739 48.6542 82.1114 48.249 82.9076 48.386C83.9429 48.5644 83.9196 48.4293 82.7027 47.1949C80.8453 45.3107 81.9976 43.9235 85.4203 43.9235H87.9731L86.634 45.651ZM189.101 44.2992L190.959 44.6742L190.745 49.216C190.51 54.1944 190.601 54.1158 185.951 53.3363C183.211 52.8767 183.098 52.4663 184.285 47.2512C185.083 43.7419 185.396 43.5505 189.101 44.2992ZM202.674 47.1208C203.162 47.8275 205.001 50.1174 206.76 52.208C208.519 54.2993 209.842 56.1277 209.7 56.2713C209.443 56.5322 196.992 55.1785 196.673 54.8553C196.581 54.7615 196.683 52.5273 196.902 49.8906L197.298 45.0957L199.542 45.4655C200.776 45.6687 202.186 46.4134 202.674 47.1208ZM186.554 46.3164C186.312 46.5629 186.112 47.4774 186.112 48.3487C186.112 50.1633 187.599 50.063 187.95 48.2248C188.198 46.9294 187.24 45.6202 186.554 46.3164ZM199.479 48.2831C198.817 48.9551 198.947 51.7904 199.641 51.7904C200.519 51.7904 201.208 49.1406 200.513 48.4359C200.188 48.1055 199.722 48.0366 199.479 48.2831ZM195.441 52.6276C195.394 56.2025 194.789 55.878 203.728 57.0718C206.84 57.4874 209.842 57.65 210.399 57.4336C210.982 57.2068 212.378 57.789 213.698 58.8103C215.208 59.9786 216.646 60.5293 217.928 60.4303C220.428 60.2375 221.657 61.3055 221.657 63.6708C221.657 66.8254 219.336 68.524 215.445 68.2172C214.218 68.1202 213.971 68.7122 213.01 74.0394C212.421 77.3008 211.757 81.3228 211.533 82.9775C211.178 85.607 210.794 86.195 208.475 87.653C207.017 88.5702 205.205 89.8912 204.448 90.5894C203.087 91.8454 203.051 91.8448 200.894 90.5107C199.695 89.7699 198.205 89.1622 197.584 89.1609C196.204 89.1576 196.172 87.9841 197.422 83.2581C198.791 78.0843 198.697 77.5303 196.354 77.0078C195.132 76.7357 192.834 75.0732 190.618 72.8587C186.536 68.7803 184.339 64.013 183.702 57.8545L183.346 54.4127L185.214 54.4901C187.164 54.5714 191.377 55.5115 190.396 55.6465C189.24 55.8052 191.495 57.69 192.816 57.6696C194.138 57.65 194.144 57.6133 192.987 56.7237C191.853 55.8524 191.841 55.6236 192.786 52.8112C193.338 51.1683 193.54 49.8237 193.236 49.8237C192.932 49.8237 192.536 50.1928 192.357 50.6432C192.169 51.1172 192.01 50.9605 191.98 50.2721C191.941 49.3504 192.331 49.1282 193.706 49.2888C195.375 49.4835 195.481 49.6861 195.441 52.6276ZM86.1551 53.1114C87.6363 53.1173 89.285 53.4123 89.8182 53.767C90.6796 54.3413 90.6796 54.4888 89.8182 55.0972C88.4998 56.0281 82.7079 55.4656 82.0041 54.3387C81.1303 52.9397 81.31 52.2644 82.439 52.7037C83.0013 52.9226 84.6732 53.1062 86.1551 53.1114ZM125.843 62.6953C144.334 71.1083 165.626 78.9699 180.296 82.7998C185.754 84.2244 186.436 84.5653 186.436 85.8712C186.436 87.1115 185.295 87.8556 179.103 90.6543C175.07 92.4768 171.616 94.376 171.427 94.8742C171.239 95.3731 171.734 96.4817 172.527 97.3379C173.32 98.194 173.793 99.184 173.577 99.5373C173.362 99.8907 171.295 101.301 168.985 102.672C166.124 104.37 164.873 105.488 165.063 106.176C166.138 110.061 166.837 115.671 166.927 121.131C167.019 126.667 166.761 128.375 164.977 134.065C160.988 146.786 157.866 161.475 156.332 174.74L155.57 181.324L151.651 183.409C149.497 184.556 147.613 185.372 147.467 185.224C146.803 184.55 150.144 159.406 152.566 146.849C154.132 138.729 158.234 121.927 160.556 114.123C161.459 111.088 162.082 108.487 161.94 108.343C161.798 108.199 161.341 109.134 160.922 110.421C160.504 111.707 160.029 112.759 159.867 112.759C158.269 112.759 146.504 105.567 137.307 98.9689C124.454 89.7456 106.597 74.4176 102.113 68.7567L100.204 66.3475L103.202 59.7747L106.2 53.2019L111.252 55.7783C114.031 57.1957 120.597 60.3083 125.843 62.6953ZM91.0674 57.4605C91.8636 58.1764 89.6068 59.1237 87.0095 59.163C84.29 59.205 82.0629 58.2446 82.0629 57.0305C82.0629 56.5473 90.5006 56.9505 91.0674 57.4605ZM199.038 62.104C197.074 63.1948 196.654 63.6196 197.745 63.4118C198.634 63.242 199.87 62.8867 200.492 62.6219C202.116 61.9289 202 64.5198 200.33 66.2131C199.619 66.9342 199.317 67.5243 199.659 67.5243C201.012 67.5243 202.915 64.5774 202.915 62.4835C202.915 59.9714 202.883 59.9688 199.038 62.104ZM196.179 84.5587C195.582 87.9081 195.117 88.7852 192.996 90.5592C190.222 92.878 189.925 92.7265 188.586 88.3158C187.927 86.1413 187.991 85.6194 189.109 84.1005C190.314 82.4629 193.609 80.7957 195.858 80.6856C196.754 80.6417 196.793 81.1163 196.179 84.5587ZM215.374 83.953C215.098 84.2113 214.217 84.6223 213.417 84.8675C212.265 85.2209 211.963 85.0543 211.963 84.067C211.963 82.2603 212.536 81.941 214.307 82.7598C215.17 83.1584 215.65 83.6953 215.374 83.953ZM228.572 84.9449C246.768 88.7577 283.198 110.86 338.629 151.718C364.33 170.662 378.353 181.803 378.59 183.467C379.204 187.782 375.105 202.031 370.559 211.382C367.974 216.701 360.823 227.531 359.959 227.435C359.5 227.385 349.323 215.242 334.729 197.328C317.804 176.554 305.306 161.59 295.103 149.883C286.993 140.576 286.558 139.931 285.516 135.677C283.612 127.905 280.114 122.13 273.091 115.166C262.06 104.226 245.443 95.8438 230.424 93.6411C223.917 92.6865 215.095 93.5395 208.631 95.7481C206.471 96.4869 204.631 97.0022 204.541 96.894C204.452 96.7859 204.189 95.6242 203.955 94.313C203.544 92.0015 203.634 91.8599 206.939 89.6689C211.165 86.867 215.189 85.2209 219.395 84.5738C221.173 84.3011 222.857 84.0402 223.139 83.9956C223.42 83.9503 225.865 84.3778 228.572 84.9449ZM187.683 89.5352C188.032 90.9473 187.534 91.8448 184.635 95.0204C182.729 97.1084 180.319 100.184 179.279 101.853C178.239 103.523 177.23 104.89 177.037 104.891C176.844 104.891 176.343 103.59 175.924 101.999C175.505 100.408 174.446 98.2694 173.572 97.2461L171.983 95.3862L179.209 91.6507C183.184 89.5962 186.622 87.8995 186.85 87.8812C187.078 87.8622 187.453 88.6069 187.683 89.5352ZM202.106 92.76C204.101 95.1122 204.001 97.8905 201.859 99.5996C198.284 102.453 192.573 100.578 191.564 96.2221C191.231 94.7824 191.546 94.0351 193.187 92.3706C195.003 90.5284 195.516 90.3455 197.937 90.6746C199.764 90.923 201.127 91.6048 202.106 92.76ZM189.651 92.8524C190.87 94.5431 190.075 96.8304 187.959 97.7194C185.343 98.8188 181.713 103.302 180.871 106.473C179.957 109.914 180.497 112.995 182.57 116.173L184.251 118.749L182.61 123.784C178.364 136.822 175.594 153.094 174.374 172.163L173.614 184.038L168.392 182.852C165.52 182.199 161.861 181.261 160.262 180.768L157.353 179.87L157.534 176.634C157.854 170.902 160.949 153.329 163.244 144.227C168.733 122.446 176.598 104.956 185.428 94.8945C186.931 93.1815 188.323 91.7805 188.52 91.7805C188.717 91.7805 189.226 92.263 189.651 92.8524ZM233.01 95.0918C247.113 97.6256 263.762 106.853 274.085 117.855C289.554 134.346 288.285 150.367 270.531 162.723C265.509 166.218 257.85 169.754 249.124 172.606C238.415 176.105 237.592 176.19 236.089 173.948C233.017 169.365 233.044 169.046 236.931 163.79C240.391 159.113 250.104 143.307 250.083 142.389C250.063 141.533 240.437 134.945 235.877 132.666C230.931 130.194 226.126 128.331 225.731 128.731C225.594 128.87 226.856 129.685 228.534 130.541C231.148 131.875 231.71 132.522 232.449 135.049C233.719 139.395 238.46 158.386 238.46 159.127C238.46 159.478 236.997 161.727 235.207 164.124C232.537 167.702 231.625 168.483 230.118 168.483C226.261 168.483 224.2 169.286 223.245 171.16C220.771 176.014 223.382 182.668 228.243 183.899C229.656 184.257 230.401 183.93 232.228 182.147C236.829 177.657 237.601 177.12 239.767 176.901L241.984 176.678L242.777 180.939C244.268 188.952 244.65 188.374 236.36 190.674C225.404 193.715 220.934 194.356 210.671 194.361C202.073 194.366 192.594 193.22 192.562 192.173C192.556 191.944 192.118 187.921 191.59 183.233C189.311 163.022 189.706 140.866 192.598 126.526C194.708 116.064 194.833 115.776 197.906 114.255C203.133 111.667 203.246 111.689 204.095 115.423C204.512 117.258 204.854 119.114 204.854 119.548C204.854 119.982 202.745 122.541 200.167 125.235C197.588 127.928 194.639 131.754 193.614 133.737C191.431 137.956 191.968 137.513 195.45 132.222C196.83 130.126 199.826 126.675 202.108 124.553L206.259 120.696L205.193 116.978C203.7 111.768 204.062 111.173 208.407 111.691L211.932 112.111L211.642 110.304C210.89 105.623 209.986 96.8462 210.229 96.599C210.379 96.4469 212.357 95.9139 214.626 95.4144C219.655 94.3078 227.845 94.1636 233.01 95.0918ZM209.685 102.106C209.914 104.9 210.244 107.956 210.417 108.897C210.726 110.566 210.635 110.616 206.663 110.961C204.424 111.155 202.102 111.515 201.504 111.762C200.548 112.156 200.573 111.905 201.711 109.699C202.686 107.807 202.921 106.413 202.665 104.052C202.232 100.063 202.638 99.0541 205.113 97.9613C208.948 96.2673 209.226 96.5197 209.685 102.106ZM191.726 99.1059C192.548 99.89 193.221 100.755 193.221 101.029C193.221 101.303 192.304 103.025 191.182 104.855C190.06 106.686 188.497 110.453 187.708 113.226L186.275 118.269L184.302 116.268C179.784 111.684 181.525 102.723 187.671 98.9204C190.132 97.3975 189.923 97.3883 191.726 99.1059ZM175.788 104.294C176.245 105.908 175.777 107.421 172.918 113.588C171.039 117.639 169.188 121.691 168.803 122.593C168.195 124.019 168.096 123.722 168.038 120.298C168.001 118.135 167.559 114.016 167.055 111.144C166.55 108.273 166.293 105.765 166.481 105.572C166.67 105.378 168.474 104.147 170.49 102.837C174.467 100.252 174.661 100.305 175.788 104.294ZM201.476 105.375C201.056 110.512 198.54 113.308 192.802 115.015L191.413 115.428L192.663 109.668C193.351 106.5 194.045 103.466 194.207 102.925C194.42 102.209 195.487 101.932 198.131 101.906L201.762 101.87L201.476 105.375ZM193.221 103.909C193.221 104.089 193.076 104.236 192.898 104.236C192.721 104.236 192.575 104.089 192.575 103.909C192.575 103.728 192.721 103.581 192.898 103.581C193.076 103.581 193.221 103.728 193.221 103.909ZM191.336 110.417C189.583 116.901 189.587 116.938 192.004 116.448C193.86 116.071 193.983 116.154 193.581 117.513C190.85 126.731 188.703 143.964 188.701 156.682C188.701 164.215 189.644 180.004 190.338 184.08L190.705 186.238L187.278 185.842C181.702 185.198 174.872 184.178 174.654 183.956C174.255 183.552 176.443 160.121 177.721 151.11C179.111 141.305 181.268 130.945 183.503 123.333C184.724 119.172 185.012 118.717 186.059 119.286C187.115 119.859 187.36 119.427 188.369 115.216C189.455 110.686 191.898 104.643 192.428 105.18C192.568 105.322 192.077 107.679 191.336 110.417ZM232.952 171.055C233.169 171.75 234.037 173.349 234.88 174.609C236.362 176.825 236.374 176.938 235.227 177.99C234.575 178.589 232.782 179.478 231.242 179.965C228.797 180.739 228.678 180.857 230.299 180.895C231.875 180.932 232.034 181.088 231.351 181.922C230.405 183.079 228.557 183.189 226.731 182.197C224.12 180.78 222.611 173.927 224.404 171.634C225.465 170.277 226.587 169.908 229.854 169.846C231.98 169.805 232.641 170.063 232.952 171.055ZM274.651 173.4C274.651 173.58 274.506 173.727 274.328 173.727C274.151 173.727 274.005 173.58 274.005 173.4C274.005 173.219 274.151 173.072 274.328 173.072C274.506 173.072 274.651 173.219 274.651 173.4ZM276.673 176.186C277.476 177.226 277.454 177.249 276.429 176.434C275.352 175.577 275.01 175.039 275.542 175.039C275.676 175.039 276.185 175.555 276.673 176.186ZM165.089 183.18C172.127 185.285 181.183 186.833 186.48 186.836L190.4 186.839L191.003 190.281L191.606 193.722L195.807 194.503C203.01 195.841 213.776 196.246 220.042 195.416C225.474 194.695 234.864 192.703 237.249 191.764C238.105 191.427 238.674 192.54 240.324 197.781C248.209 222.839 249.202 247.717 244.924 313.037C244.24 323.494 243.478 337.588 243.232 344.357L242.784 356.666L233.062 356.485L223.341 356.305L220.899 352.044C217.321 345.799 210.113 329.637 204.62 315.543C191.434 281.715 182.838 250.527 180.799 229.124C180.353 224.436 179.884 221.486 179.756 222.568C178.988 229.091 182.599 251.199 187.139 267.77C189.722 277.2 189.72 276.176 187.189 291.075C184.41 307.437 182.235 332.114 182.235 347.28V354.011H173.276H164.316L162.66 350.241C149.141 319.468 142.45 286.741 142.59 252.069C142.679 230.047 144.822 212.33 149.806 192.411C151.596 185.26 151.634 185.188 154.32 183.676C155.811 182.837 157.03 181.844 157.03 181.468C157.03 181.094 157.54 180.934 158.161 181.116C158.783 181.297 161.901 182.226 165.089 183.18ZM266.896 197C266.896 197.181 266.751 197.328 266.573 197.328C266.395 197.328 266.25 197.181 266.25 197C266.25 196.82 266.395 196.673 266.573 196.673C266.751 196.673 266.896 196.82 266.896 197ZM267.866 198.639C268.085 199 268.12 199.295 267.942 199.295C267.764 199.295 267.439 199 267.219 198.639C267 198.279 266.965 197.984 267.143 197.984C267.321 197.984 267.646 198.279 267.866 198.639ZM270.147 201.954C271.129 203.815 270.459 203.512 269.165 201.509C268.555 200.563 268.374 199.989 268.765 200.234C269.155 200.479 269.777 201.252 270.147 201.954ZM200.977 310.415C202.86 315.463 205.37 321.933 206.556 324.793C207.741 327.653 208.643 330.047 208.56 330.112C208.477 330.177 206.228 329.968 203.562 329.648C200.896 329.328 195.41 329.259 191.37 329.493L184.026 329.921L184.461 325.085C186.309 304.552 188.444 286.572 189.744 280.586C190.011 279.357 191.032 281.735 193.828 290.092C195.878 296.222 199.095 305.367 200.977 310.415ZM78.8316 305.17C78.8316 305.351 78.977 305.498 79.1547 305.498C79.3324 305.498 79.4778 305.351 79.4778 305.17C79.4778 304.99 79.3324 304.842 79.1547 304.842C78.977 304.842 78.8316 304.99 78.8316 305.17ZM80.1241 305.17C80.1241 305.351 80.2695 305.498 80.4472 305.498C80.625 305.498 80.7704 305.351 80.7704 305.17C80.7704 304.99 80.625 304.842 80.4472 304.842C80.2695 304.842 80.1241 304.99 80.1241 305.17ZM82.2245 305.95C82.8468 306.115 83.8641 306.115 84.4864 305.95C85.1088 305.785 84.5995 305.65 83.3555 305.65C82.1114 305.65 81.6021 305.785 82.2245 305.95ZM89.9797 306.635C91.6684 306.771 94.4306 306.771 96.1193 306.635C97.808 306.5 96.4263 306.39 93.0495 306.39C89.6727 306.39 88.291 306.5 89.9797 306.635ZM288.524 322.237C299.797 325.216 306.998 333.707 308.063 345.281C308.273 347.559 308.513 349.422 308.596 349.422C308.68 349.422 310.309 348.698 312.219 347.814C327.684 340.651 342.547 349.287 341.76 364.98L341.54 369.357L344.878 369.177C346.978 369.064 348.952 369.383 350.199 370.038C352.106 371.038 354.141 373.999 354.144 375.776C354.145 376.317 356.712 377.256 361.18 378.349C375.293 381.801 380.458 386.194 373.557 388.875C369.647 390.394 350.074 391.361 323.768 391.334L296.948 391.306L292.101 385.395C285.894 377.824 273.43 365.554 264.143 357.871C255.996 351.13 255.493 350.204 256.23 343.268C256.847 337.466 258.808 332.881 262.242 329.214C268.653 322.368 278.813 319.671 288.524 322.237ZM208.007 331.688C209.199 332.008 210.155 333.499 212.25 338.303C215.072 344.774 220.456 354.821 222.161 356.797C222.733 357.461 224.061 357.944 225.312 357.944C227.156 357.944 227.474 358.172 227.474 359.501C227.474 360.357 227.655 361.98 227.878 363.107C228.248 364.985 228.141 365.155 226.585 365.155C224.579 365.155 224.591 365.068 225.974 369.515C226.57 371.435 226.934 373.085 226.782 373.18C226.629 373.275 223.697 374.738 220.266 376.43C213.507 379.763 209.378 382.952 209.378 384.84C209.378 386.854 213.39 387.712 222.627 387.675C227.248 387.657 233.587 387.27 236.715 386.816C243.992 385.758 244.705 384.935 243.618 378.851C243.213 376.587 242.972 372.358 243.081 369.453C243.272 364.419 243.214 364.162 241.84 363.962C240.791 363.81 240.373 363.276 240.302 361.996L240.205 360.239L239.944 361.957C239.718 363.446 239.288 363.731 236.719 364.087C229.611 365.076 229.413 364.98 228.44 360.075L228.017 357.944H235.743H243.469L243.873 355.895C244.095 354.768 244.277 351.949 244.277 349.629V345.413L247.516 347.253C249.298 348.266 253.494 351.159 256.84 353.683C274.179 366.759 291.143 384.535 308.021 407.312L313.925 415.278L311.977 416.235C307.227 418.568 304.596 424.828 301.365 441.488C300.102 448.001 298.49 454.898 297.784 456.815C294.652 465.316 290.13 462.613 275.74 443.636C266.279 431.161 262.084 426.475 257.748 423.538C250.221 418.439 246.646 420.177 241.417 431.478C239.693 435.204 236.016 442.972 233.246 448.741C226.056 463.716 220.659 470.047 215.085 470.047C211.338 470.047 207.857 466.353 199.341 453.339C188.999 437.536 185.155 433.991 178.357 433.991C172.341 433.991 166.814 438.222 158.871 448.908C148.761 462.51 140.889 468.35 132.76 468.281C122.103 468.19 113.991 457.891 109.761 439.079C107.673 429.793 105.867 426.78 102.39 426.78C99.3468 426.78 94.9495 431.087 86.0246 442.814C74.7174 457.669 70.8456 461.271 67.5574 459.99C64.8566 458.939 62.9553 448.573 63.7502 439.235C64.1619 434.402 64.264 434.175 69.7909 425.796C76.4287 415.732 84.6874 404.442 93.0476 394.001C100.282 384.966 120.287 364.527 127.948 358.343C137.353 350.752 154.721 339.791 156.429 340.368C156.798 340.493 158.435 343.761 160.068 347.631L163.036 354.666H165.526C167.531 354.666 168.017 354.906 168.017 355.895C168.017 356.571 168.196 358.033 168.414 359.142C168.772 360.956 168.626 361.204 166.96 361.609C164.144 362.293 164.135 362.317 165.416 366.094L166.614 369.626L160.045 372.944C146.214 379.928 145.11 383.413 156.384 384.513C161.337 384.996 177.909 383.83 180.845 382.792C183.47 381.864 183.794 380.438 182.894 373.776C182.497 370.831 182.369 366.655 182.61 364.495C182.986 361.12 182.9 360.566 181.995 360.566C180.306 360.566 180.526 355.585 182.235 355.132C183.443 354.811 183.531 354.216 183.575 346.041C183.602 341.23 183.819 335.966 184.06 334.343L184.497 331.393L189.344 331.019C194.542 330.618 205.484 331.01 208.007 331.688ZM87.7443 346.44C94.375 349.496 100.158 357.153 100.158 362.877V364.299L103.551 363.109C105.417 362.455 107.608 361.911 108.419 361.899C110.245 361.872 114.259 363.534 115.811 364.958C116.908 365.965 116.578 366.431 109.677 373.62C101.129 382.525 95.0652 389.479 88.5844 397.814L83.9022 403.834L62.1403 403.831C30.128 403.827 10.8917 402.321 4.14015 399.292C-0.357248 397.274 -0.471638 393.622 3.89069 391.365C7.64358 389.422 13.9001 388.121 19.5362 388.11L24.5448 388.101V385.923C24.5448 373.804 38.9347 365.827 50.8312 371.351C52.8825 372.304 55.0165 373.502 55.5729 374.012C56.4848 374.849 56.5824 374.311 56.5598 368.573C56.5255 359.718 57.8026 356.215 62.9818 350.958C66.2209 347.67 67.7299 346.668 71.1177 345.552C76.8475 343.666 82.3634 343.961 87.7443 346.44ZM180.296 357.876V360.43L175.089 360.897C172.225 361.154 169.793 361.259 169.686 361.13C169.578 361 169.3 359.64 169.068 358.108L168.648 355.322H174.472H180.296V357.876ZM169.483 365.585C169.046 365.765 168.173 365.776 167.544 365.61C166.916 365.443 167.274 365.296 168.34 365.283C169.406 365.27 169.921 365.406 169.483 365.585ZM170.427 367.518C170.212 367.736 169.655 367.759 169.189 367.57C168.673 367.361 168.826 367.205 169.579 367.174C170.26 367.146 170.641 367.3 170.427 367.518ZM229.574 368.867C229.13 369.05 228.403 369.05 227.958 368.867C227.514 368.686 227.878 368.537 228.766 368.537C229.655 368.537 230.019 368.686 229.574 368.867ZM230.867 370.834C230.423 371.016 229.696 371.016 229.251 370.834C228.807 370.652 229.17 370.504 230.059 370.504C230.947 370.504 231.311 370.652 230.867 370.834Z" fill="black" stroke="black" stroke-width="2" mask="url(#path-1-inside-1_2033:222)"/>
</svg>
