<svg width="380" height="385" viewBox="0 0 380 385" fill="none" xmlns="http://www.w3.org/2000/svg">
<path fill-rule="evenodd" clip-rule="evenodd" d="M155.266 1.28159C155.067 1.60456 154.793 3.72997 154.657 6.00443C154.182 13.9711 157.194 21.7609 162.733 26.8919C170.495 34.0829 180.129 35.6673 189.048 31.2203L191.909 29.793L197.654 35.5573C200.814 38.7276 203.079 41.3215 202.689 41.3215C202.299 41.3215 202.085 41.4265 202.213 41.5547C202.341 41.6835 202.934 41.6607 203.53 41.5045C204.496 41.2521 204.3 40.9585 201.735 38.8113C197.889 35.5933 187.288 24.5865 187.668 24.2062C187.834 24.0404 187.553 23.4315 187.046 22.853C186.538 22.2745 185.74 20.5466 185.274 19.0129C184.587 16.7607 181.382 10.9341 181.374 11.9243C181.373 12.0688 182.284 14.0041 183.399 16.2243C184.514 18.4445 185.426 20.5532 185.426 20.9101C185.426 21.2671 183.431 20.0163 180.992 18.1297C174.18 12.8608 172.706 11.7966 172.505 11.9984C172.402 12.1013 174.299 13.6644 176.719 15.4719C179.139 17.2799 182.701 20.4163 184.635 22.4418L188.151 26.1243L186.409 25.8703C184.919 25.6527 184.978 25.707 186.812 26.2439C187.992 26.5892 189.546 27.4613 190.264 28.1822L191.57 29.4934L188.625 30.8065C175.143 36.8187 160.57 29.5684 156.256 14.7033C155.407 11.7808 155.019 3.12915 155.705 2.44316C155.869 2.27788 157.094 2.60592 158.427 3.17174C161.083 4.29934 165.132 5.02741 173.264 5.83914C180.064 6.51804 186.485 7.68721 189.158 8.73318C197.573 12.0262 199.944 18.9394 195.16 26.2297C194.476 27.2706 193.681 27.9769 193.394 27.7989C192.068 26.9791 193.75 28.7202 195.196 29.6648L196.828 30.73L195.469 29.6151L194.11 28.5001L195.655 26.577C199.201 22.1614 199.023 15.7568 195.245 11.8128C191.867 8.28752 186.241 6.41765 175.798 5.34835C161.949 3.93024 158.421 3.22245 156.491 1.47477C155.865 0.907926 155.53 0.855196 155.266 1.28159ZM354.666 5.50097C344.188 10.2339 337.283 15.0916 331.265 21.9637C328.401 25.2355 325.137 31.6619 324.319 35.6424C323.735 38.4832 323.667 46.6345 324.206 49.1549C324.382 49.9773 324.527 47.3535 324.528 43.3242C324.53 36.6874 324.656 35.6556 325.858 32.3595C329.52 22.3222 337.644 14.7438 352.649 7.36779L358.982 4.25422L360.393 12.5211C362.268 23.4995 362.18 30.9952 360.127 35.2373L358.777 38.0259H353.56C349.337 38.0259 347.907 38.2277 346.057 39.0846C341.757 41.0761 338.465 45.5845 338.5 49.4337C338.515 51.0729 338.586 50.9887 339.434 48.3366C341.566 41.6653 344.623 39.2407 351.344 38.8873C353.672 38.7651 357.865 39.0227 361.019 39.4816C371.835 41.0543 375.621 41.0665 379.596 39.5404C380.287 39.2747 380.166 39.8943 378.932 42.9303C374.236 54.4871 369.109 59.5157 360.062 61.4348C351.611 63.2281 341.198 60.2144 335.492 54.3239L333.79 52.5666L335.239 51.7285C336.796 50.828 336.333 50.9619 331.621 52.7745C328.387 54.0187 328.339 54.3401 331.52 53.4559C333.412 52.9301 333.496 52.9676 336.359 55.6137C341.444 60.3132 347.562 62.6212 354.91 62.61C365.804 62.5938 372.29 58.2517 377.619 47.4057C379.195 44.1988 380.641 40.9124 380.831 40.1021C381.153 38.7327 381.092 38.6536 379.962 38.9756C377.316 39.73 369.867 39.9156 365.778 39.3289C358.738 38.3185 359.194 38.717 360.971 35.1293C362.282 32.4837 362.53 31.3389 362.695 27.1738C362.818 24.0825 362.589 20.6445 362.069 17.7454C361.618 15.2356 360.999 11.357 360.694 9.12612C359.82 2.73216 360.238 2.98415 354.666 5.50097ZM313.027 5.46497C311.639 8.37574 309.455 10.4945 306.305 11.9857C304.621 12.7827 303.585 13.4302 304.003 13.4241C305.328 13.4053 309.269 11.4001 310.765 9.98348C312.291 8.53798 314.954 3.80247 314.24 3.80247C314.009 3.80247 313.463 4.55031 313.027 5.46497ZM314.687 4.8165C314.671 4.95593 315.124 6.55302 315.693 8.3656C318.096 16.0124 318.763 25.7465 317.414 33.4856C315.504 44.4422 309.936 52.2877 301.144 56.4082C298.528 57.6347 297.575 57.7995 293.108 57.7995C288.614 57.7995 287.722 57.6428 285.223 56.4143C283.672 55.6528 281.515 54.2605 280.428 53.321L278.453 51.6124L281.153 48.3797C282.638 46.6016 285.251 43.6355 286.96 41.7885L290.068 38.4305L297.414 37.5544C301.453 37.0727 304.855 36.5819 304.972 36.4648C305.382 36.0557 302.194 36.2762 297.162 37.0058C294.375 37.4099 291.753 37.7384 291.335 37.7364C290.917 37.7344 291.943 36.4663 293.615 34.9179C295.287 33.37 296.371 32.2515 296.022 32.4325C294.903 33.0146 295.328 32.144 298.302 27.7609C302.136 22.1118 302.819 21.0369 301.905 22.0854C299.116 25.2882 297.289 27.8106 295.804 30.5059C294.294 33.2483 291.293 36.4319 285.957 40.9519L284.897 41.8498L285.329 39.0962C285.566 37.5818 286.208 34.9058 286.753 33.15C287.3 31.3937 287.665 29.8757 287.566 29.7763C287.221 29.4305 285.284 36.0171 284.776 39.2701C284.284 42.4141 284.12 42.6874 280.578 46.2629L276.893 49.9838L275.556 48.4978C270.687 43.0803 271.079 31.6953 276.384 24.4831C279.926 19.668 285.538 17.0817 297.134 14.9193C300.38 14.3139 302.943 13.7268 302.831 13.6142C302.718 13.5022 299.75 13.8718 296.234 14.4361C289.206 15.5642 284.374 17.1608 281.039 19.456C271.016 26.3565 268.162 39.9247 274.881 48.7381C275.57 49.6411 276.133 50.4848 276.133 50.6125C276.133 50.7403 274.515 52.7516 272.538 55.0824C264.861 64.1356 256.211 78.5789 254.729 84.8223C254.385 86.2729 253.978 87.4598 253.825 87.4598C253.672 87.4598 252.789 85.92 251.863 84.0375C249.304 78.8335 245.397 73.0925 240.219 66.9257C237.644 63.8583 234.739 60.0014 233.762 58.3552C231.968 55.3308 229.899 49.7395 229.296 46.2867L228.968 44.4067L231.478 44.7043C234.663 45.0815 236.12 44.7079 238.161 42.9901C244.726 37.4621 242.941 23.7484 234.564 15.367C232.945 13.747 231.374 12.4217 231.073 12.4217C230.772 12.4217 230.526 13.3404 230.526 14.4665C230.526 17.2008 228.794 20.4275 224.7 25.3191C220.521 30.3137 219.767 31.7506 219.767 34.7303C219.767 38.4863 221.479 41.0558 224.953 42.5176C226.642 43.2284 226.715 43.3749 227.271 47.2297C227.586 49.418 228.016 52.0068 228.226 52.9828L228.608 54.7574L226.883 53.1096C225.933 52.203 224.997 51.4618 224.801 51.4618C224.605 51.4618 224.482 52.888 224.528 54.6306L224.61 57.7995L224.908 55.0109L225.205 52.2223L227.612 54.6174C228.936 55.9347 230.019 56.9015 230.019 56.7657C230.019 56.6303 229.563 54.8725 229.006 52.8596C228.313 50.357 228.015 47.8356 228.064 44.8807L228.136 40.561L228.507 43.8566C229.082 48.9668 229.91 51.8618 232.03 56.1775C233.484 59.1354 233.77 60.0749 233.143 59.8392C232.679 59.6648 233.806 61.0743 235.648 62.9705C242.184 69.7031 247.182 76.4936 251.551 84.5805C252.879 87.04 254.127 88.8652 254.323 88.6366C254.518 88.4074 255.072 86.7373 255.554 84.9247C256.836 80.1005 260.837 72.042 264.96 65.9817C268.88 60.2205 276.333 51.3411 280.978 46.8987L283.893 44.1101L280.357 48.4197C269.588 61.5453 261.623 74.6851 258.176 85.014C256.268 90.7295 256.643 91.0287 258.7 85.4323C262.181 75.9607 268.886 64.1037 275.971 54.8917L278.248 51.9308L280.212 53.7063C286.233 59.1486 295.209 60.2286 302.99 56.4478C316.029 50.1116 322.114 31.2289 317.339 11.9177C316.635 9.07136 314.772 4.08183 314.687 4.8165ZM349.466 17.3651C348.219 19.5265 346.946 21.7508 346.638 22.3085C346.201 23.0984 346.128 22.4819 346.307 19.5199C346.493 16.4504 346.449 16.1082 346.076 17.7454C345.822 18.8608 345.601 20.7687 345.585 21.9845C345.562 23.717 344.987 25.1442 342.929 28.5757C340.415 32.7656 333.551 43.8688 331.993 46.2649C331.585 46.8921 331.36 47.4057 331.493 47.4057C331.626 47.4057 333.363 44.9436 335.351 41.9345C338.641 36.9566 339.276 36.2838 342.388 34.4824C347.343 31.6142 349.665 30.0531 349.387 29.7758C349.254 29.6419 347.083 30.8141 344.563 32.3813C342.043 33.948 339.982 35.1101 339.982 34.9641C339.982 34.8175 341.995 31.2258 344.455 26.9821C350.884 15.8942 352.249 13.4357 351.975 13.4357C351.842 13.4357 350.713 15.2037 349.466 17.3651ZM234.673 16.3587C239.162 21.1606 241.327 26.6379 241.344 33.2367C241.362 40.059 238.43 44.0356 233.345 44.0852C229.623 44.1212 229.006 43.741 229.006 41.4087C229.006 39.837 229.43 38.9325 231.095 36.9566L233.183 34.4768L231.095 36.6119C229.946 37.7861 229.007 38.6987 229.009 38.6399C229.023 38.1268 230.047 32.3621 230.275 31.5123C230.542 30.5196 230.504 30.5297 229.863 31.6239L229.157 32.827L228.848 31.6462C228.678 30.9967 228.424 30.5804 228.283 30.7219C228.141 30.8633 228.201 31.6345 228.415 32.4356C228.64 33.2757 228.544 34.9823 228.188 36.4663C227.849 37.8819 227.43 39.8811 227.258 40.9088C226.954 42.7254 226.903 42.7635 225.455 42.258C223.434 41.5532 221.021 38.6921 220.613 36.5155C219.907 32.7499 220.836 30.9348 227.755 22.562C229.272 20.7256 230.34 18.7776 230.882 16.8581C231.335 15.2544 231.865 13.9428 232.06 13.9428C232.255 13.9428 233.431 15.0298 234.673 16.3587ZM186.693 23.069C187.197 23.6267 187.496 24.083 187.357 24.083C187.217 24.083 186.69 23.6267 186.186 23.069C185.682 22.5113 185.383 22.055 185.522 22.055C185.662 22.055 186.189 22.5113 186.693 23.069ZM189.227 25.0971C189.731 25.6548 190.258 26.1111 190.397 26.1111C190.537 26.1111 190.238 25.6548 189.733 25.0971C189.229 24.5393 188.702 24.083 188.563 24.083C188.423 24.083 188.722 24.5393 189.227 25.0971ZM191 26.3027C191 26.4077 191.4 26.8072 191.887 27.19C192.691 27.8202 192.708 27.8025 192.079 26.9984C191.416 26.1537 191 25.8855 191 26.3027ZM288.104 27.9054C287.615 29.18 287.759 29.5091 288.356 28.4814C288.652 27.9723 288.787 27.4491 288.657 27.3188C288.526 27.188 288.277 27.4521 288.104 27.9054ZM197.711 31.4768C197.876 31.7445 199.096 32.7428 200.422 33.6955C201.748 34.6482 202.698 35.209 202.532 34.9418C202.367 34.674 201.147 33.6757 199.821 32.7231C198.495 31.7704 197.545 31.2096 197.711 31.4768ZM203.162 35.4219C203.162 35.5613 203.846 36.1626 204.682 36.7584C205.518 37.3541 206.202 37.7273 206.202 37.5879C206.202 37.4484 205.518 36.8471 204.682 36.2514C203.846 35.6556 203.162 35.2825 203.162 35.4219ZM206.963 38.2794C207.135 38.5583 207.39 38.7864 207.529 38.7864C207.668 38.7864 207.642 38.5583 207.469 38.2794C207.297 38.0006 207.042 37.7724 206.903 37.7724C206.763 37.7724 206.79 38.0006 206.963 38.2794ZM228.33 40.1386C228.144 40.3242 227.992 40.1721 227.992 39.8005C227.992 39.4288 228.144 39.2767 228.33 39.4623C228.516 39.6484 228.516 39.9526 228.33 40.1386ZM208.616 40.1589C209.246 40.2801 210.158 40.2755 210.643 40.1488C211.127 40.022 210.611 39.9227 209.496 39.9282C208.381 39.9338 207.985 40.0378 208.616 40.1589ZM205.569 40.6431C205.918 40.7841 206.488 40.7841 206.836 40.6431C207.185 40.5027 206.899 40.3876 206.202 40.3876C205.506 40.3876 205.221 40.5027 205.569 40.6431ZM213.44 40.8611C216.167 41.5035 218.313 42.6768 220.644 44.7996L222.67 46.6452L220.897 44.682C218.943 42.5176 214.764 40.2918 212.79 40.3633C211.845 40.3977 212.01 40.524 213.44 40.8611ZM201.135 42.082C201.135 42.2215 201.249 42.3355 201.388 42.3355C201.528 42.3355 201.642 42.2215 201.642 42.082C201.642 41.9426 201.528 41.8285 201.388 41.8285C201.249 41.8285 201.135 41.9426 201.135 42.082ZM198.069 44.1932C196.939 45.2149 195.78 46.5265 195.493 47.1086C195.207 47.6901 195.57 47.4341 196.301 46.5392C197.031 45.6443 198.361 44.3347 199.256 43.6294C200.15 42.9237 200.711 42.3442 200.503 42.3411C200.295 42.3381 199.2 43.1716 198.069 44.1932ZM205.442 44.6034C204.245 45.2052 204.191 45.2879 205.189 44.9923C206.84 44.5035 212.118 44.5106 214.057 45.0045C215.341 45.3315 215.426 45.3 214.603 44.8037C213.022 43.849 207.196 43.7217 205.442 44.6034ZM203.162 45.6311C203.162 45.7706 203.276 45.8846 203.415 45.8846C203.555 45.8846 203.669 45.7706 203.669 45.6311C203.669 45.4917 203.555 45.3776 203.415 45.3776C203.276 45.3776 203.162 45.4917 203.162 45.6311ZM216.084 45.7036C216.363 45.9511 217.273 46.7202 218.107 47.4133C219.57 48.6286 219.589 48.6311 218.62 47.4853C218.067 46.8322 217.157 46.0626 216.596 45.7756C216.036 45.4887 215.805 45.4562 216.084 45.7036ZM200.488 47.8539C197.633 51.0156 197.092 56.1765 199.185 60.2737C201.045 63.9136 205.821 66.7315 209.969 66.6367C213.103 66.5647 213.532 65.827 210.439 65.827C202.938 65.827 197.331 59.6693 198.644 52.8728C198.875 51.6783 199.074 50.5309 199.086 50.3225C199.098 50.1141 199.933 49.0302 200.94 47.9142C201.948 46.7978 202.659 45.8846 202.52 45.8846C202.381 45.8846 201.466 46.7709 200.488 47.8539ZM209.75 46.814C209.75 47.1395 209.42 47.4057 209.018 47.4057C208.615 47.4057 207.646 47.9984 206.864 48.7229L205.442 50.0396L206.904 48.9764C209.629 46.994 209.716 47.1963 209.719 55.5179C209.722 63.8527 209.622 64.0819 206.904 62.0077L205.442 60.8923L206.396 61.9945C206.921 62.6009 207.833 63.2478 208.423 63.4319C209.013 63.6159 209.61 63.9389 209.75 64.1493C209.889 64.3597 210.297 64.2147 210.656 63.8274C211.063 63.3898 211.103 63.1231 210.763 63.1231C210.392 63.1231 210.238 60.5054 210.282 54.9724C210.318 50.4893 210.213 46.6867 210.049 46.522C209.884 46.3572 209.75 46.489 209.75 46.814ZM222.672 47.4057C222.844 47.6845 223.099 47.9127 223.238 47.9127C223.377 47.9127 223.351 47.6845 223.178 47.4057C223.006 47.1268 222.751 46.8987 222.612 46.8987C222.472 46.8987 222.499 47.1268 222.672 47.4057ZM134.79 47.9259C131.19 48.6823 128.046 49.8059 116.894 54.3214C104.098 59.502 99.1278 60.7995 93.4072 60.4522C91.1522 60.3153 88.8029 59.9335 88.1862 59.6029C85.5122 58.1711 85.5355 59.1654 88.3109 64.8977C96.2819 81.3614 106.24 92.4032 117.878 97.6832C130.194 103.271 145.493 102.143 157.655 94.7512C159.375 93.7052 161.643 91.9895 162.694 90.9379L164.605 89.026L170.074 90.2316C173.083 90.8948 176.571 91.557 177.825 91.7035C179.545 91.9038 179.297 91.7791 176.812 91.1955C159.452 87.1186 150.515 84.471 143.526 81.3335C141.686 80.5076 140.061 79.9509 139.915 80.0964C139.77 80.2425 139.962 80.3616 140.343 80.3616C140.828 80.3616 140.876 80.5213 140.502 80.896C140.208 81.1901 137.711 81.6667 134.953 81.9546C127.75 82.7081 125.195 83.4437 130.719 83.173C133.101 83.0564 136.572 82.5778 138.435 82.1098L141.821 81.259L146.521 83.1385C149.106 84.1723 151.314 85.1093 151.427 85.2203C151.541 85.3314 150.173 86.098 148.387 86.9244C146.601 87.7513 145.507 88.4378 145.956 88.4505C146.404 88.4632 148.088 87.8091 149.698 86.9969L152.624 85.5195L157.751 87.0633C160.57 87.9126 163.071 88.7831 163.309 88.9986C163.96 89.5882 158.29 93.8639 154.249 95.8291C146.665 99.5186 134.117 101.098 125.629 99.4324C114.621 97.272 105.01 89.899 96.473 77.066C93.203 72.15 86.8788 60.659 87.2427 60.2945C87.3172 60.2205 88.8587 60.5074 90.6687 60.9328C97.4277 62.5203 102.804 61.3126 118.074 54.7756C129.024 50.0883 134.664 48.4288 139.668 48.4233C146.985 48.4151 152.165 50.5558 157.353 55.7309C163.069 61.4343 166.204 69.437 166.148 78.1855C166.127 81.403 165.55 85.7136 165.076 86.1877C164.962 86.3023 163.8 86.1223 162.495 85.7872C160.459 85.2644 159.897 84.8188 158.537 82.6432C156.754 79.7907 153.5 76.2411 151.221 74.6633C150.385 74.0843 150.968 74.8443 152.516 76.3521C155.109 78.8776 159.271 84.3913 158.88 84.7828C158.577 85.0854 146.664 81.3138 146.502 80.8635C145.644 78.4856 137.191 70.6543 136.369 71.4767C136.223 71.6227 136.198 71.8133 136.314 71.9006C136.431 71.9872 137.717 72.9146 139.172 73.9611C142.112 76.0753 146.02 80.2637 145.635 80.8874C144.982 81.945 169.018 88.5859 172.94 88.4312C173.536 88.4074 172.2 88.0059 169.971 87.5389C166.875 86.8899 165.965 86.5107 166.12 85.9337C166.232 85.5184 166.429 82.4277 166.558 79.0662C166.755 73.9296 166.623 72.3346 165.728 69.0699C163.531 61.0596 156.838 52.5995 150.183 49.4221C147.097 47.9482 146.095 47.7292 141.854 47.6009C139.202 47.5203 136.024 47.6663 134.79 47.9259ZM330.559 48.4983C330.335 48.8608 330.42 48.946 330.782 48.7214C331.366 48.3604 331.566 47.9127 331.144 47.9127C331.021 47.9127 330.758 48.1763 330.559 48.4983ZM369.373 48.1662C369.373 48.3056 369.487 48.4197 369.626 48.4197C369.766 48.4197 369.88 48.3056 369.88 48.1662C369.88 48.0268 369.766 47.9127 369.626 47.9127C369.487 47.9127 369.373 48.0268 369.373 48.1662ZM194.075 49.812C192.984 52.202 192.836 56.1223 193.723 59.174C194.529 61.9473 197.987 66.5434 200.132 67.6918C200.63 67.9585 199.712 66.8502 198.091 65.2282C195.83 62.9664 194.957 61.6492 194.339 59.5674C193.359 56.2642 193.344 53.3884 194.294 50.7205C195.131 48.3675 194.994 47.7976 194.075 49.812ZM365.631 49.7851C363.991 50.4726 361.04 51.444 359.072 51.944L355.496 52.8525L359.52 52.8485C361.895 52.8459 362.922 52.7141 362.025 52.5265C360.511 52.2101 360.514 52.2061 362.785 51.5252C365.191 50.8042 368.866 49.0743 368.866 48.6631C368.866 48.5292 368.809 48.4456 368.739 48.477C368.669 48.5089 367.271 49.0971 365.631 49.7851ZM223.432 49.1802C223.432 49.3197 223.546 49.4337 223.685 49.4337C223.824 49.4337 223.938 49.3197 223.938 49.1802C223.938 49.0408 223.824 48.9267 223.685 48.9267C223.546 48.9267 223.432 49.0408 223.432 49.1802ZM220.434 50.7013C220.739 51.5378 221.007 53.5913 221.03 55.2644C221.065 57.8395 221.138 58.0728 221.506 56.7854C222.055 54.8659 221.592 51.3868 220.621 50.136C219.946 49.2674 219.93 49.3192 220.434 50.7013ZM329.546 50.0193C329.321 50.3819 329.406 50.467 329.768 50.2424C330.353 49.8814 330.553 49.4337 330.13 49.4337C330.007 49.4337 329.744 49.6974 329.546 50.0193ZM353.41 51.2529L351.89 52.5595L353.537 51.4694C354.443 50.8696 355.184 50.2799 355.184 50.1598C355.184 49.78 354.97 49.9124 353.41 51.2529ZM205.221 50.9685C205.177 52.0418 206.54 53.8787 207.875 54.5449C208.751 54.982 208.694 54.8471 207.609 53.9152C206.849 53.2627 206.008 52.1589 205.74 51.4618C205.472 50.7646 205.239 50.5426 205.221 50.9685ZM324.82 51.7574C324.844 52.3481 324.964 52.4682 325.126 52.0641C325.272 51.6981 325.254 51.2605 325.086 51.0922C324.917 50.9239 324.798 51.223 324.82 51.7574ZM328.834 51.2083C328.834 51.3477 328.948 51.4618 329.087 51.4618C329.226 51.4618 329.34 51.3477 329.34 51.2083C329.34 51.0689 329.226 50.9548 329.087 50.9548C328.948 50.9548 328.834 51.0689 328.834 51.2083ZM348.596 53.0269C346.202 53.2825 346.47 53.3362 350.497 53.4072C353.074 53.4528 355.184 53.3996 355.184 53.2896C355.184 52.8906 351.319 52.7364 348.596 53.0269ZM319.089 60.7635L312.9 68.5446L310.098 67.5331C306.04 66.0674 297.06 65.752 292.205 66.9044C281.005 69.5622 272.177 77.2531 269.25 86.9026C268.861 88.1848 268.56 89.6907 268.582 90.2484C268.604 90.8061 268.912 90.2129 269.265 88.9296C270.07 86.0082 272.12 81.4973 273.677 79.2173C276.755 74.7124 284.263 69.767 290.828 67.9205C295.201 66.6905 303.112 66.6514 307.493 67.8384C318.085 70.7076 325.875 78.367 327.852 87.8558C328.652 91.6944 328.173 98.9827 326.842 103.24C325.524 107.455 321.652 113.444 318.4 116.296C317.032 117.496 316.369 118.251 316.929 117.974C319.006 116.944 323.713 111.37 325.494 107.831C329.029 100.808 329.97 91.9616 327.881 85.3952C326.679 81.6149 323.764 76.886 321.045 74.3048C320.034 73.3435 319.206 72.3442 319.206 72.0841C319.206 71.6754 323.693 63.5039 327.676 56.6587C328.366 55.4733 328.809 54.5039 328.662 54.5039C328.313 54.5039 324.016 61.6746 320.99 67.306C319.679 69.7462 318.497 71.7424 318.363 71.7424C317.849 71.7424 313.632 69.0942 313.644 68.7789C313.65 68.5963 315.95 65.5948 318.753 62.1091C324.561 54.8897 325.985 52.9828 325.57 52.9828C325.409 52.9828 322.493 56.4843 319.089 60.7635ZM345.049 53.2363C345.049 53.3758 345.163 53.4898 345.303 53.4898C345.442 53.4898 345.556 53.3758 345.556 53.2363C345.556 53.0969 345.442 52.9828 345.303 52.9828C345.163 52.9828 345.049 53.0969 345.049 53.2363ZM229.006 54.7574C229.006 54.8968 228.892 55.0109 228.752 55.0109C228.613 55.0109 228.499 54.8968 228.499 54.7574C228.499 54.618 228.613 54.5039 228.752 54.5039C228.892 54.5039 229.006 54.618 229.006 54.7574ZM210.763 55.6954C210.763 55.8125 211.361 56.3002 212.092 56.7799C212.824 57.259 213.267 57.4004 213.077 57.0942C212.716 56.5091 210.763 55.3283 210.763 55.6954ZM223.938 58.706C223.938 59.137 224.117 59.5654 224.336 59.6587C225.488 60.1495 236.402 75.9425 242.035 85.271L245.152 90.4329L242.526 90.9988C238.422 91.8835 236.437 92.0812 227.486 92.4955L219.124 92.8828L226.472 92.9568C231.114 93.0035 235.686 92.7322 238.887 92.2197C241.674 91.7735 244.406 91.376 244.957 91.3354C245.779 91.2756 247.128 93.5546 252.416 103.938C257.568 114.054 264.095 127.906 265.881 132.511C266.028 132.889 265.095 132.395 263.81 131.413C259.037 127.768 252.215 126.375 244.496 127.467C242.285 127.781 240.39 128.123 240.283 128.23C240.177 128.336 241.073 129.441 242.276 130.685C243.478 131.929 245.692 135.259 247.196 138.085C248.7 140.91 250.701 144.123 251.643 145.224C255.596 149.845 262.815 151.396 268.278 148.799C269.672 148.137 271.105 147.615 271.462 147.641C272.238 147.697 272.184 147.496 269.31 139.682C262.015 119.845 249.225 94.5859 237.289 76.4434C232.231 68.7535 223.938 57.7371 223.938 58.706ZM219.957 59.9543C219.405 61.2472 219.417 61.2771 220.13 60.3645C220.552 59.823 220.898 59.1958 220.898 58.9702C220.898 58.1995 220.554 58.5595 219.957 59.9543ZM213.804 60.3345C213.804 60.474 213.918 60.588 214.057 60.588C214.196 60.588 214.31 60.474 214.31 60.3345C214.31 60.1951 214.196 60.081 214.057 60.081C213.918 60.081 213.804 60.1951 213.804 60.3345ZM223.432 60.3345C223.432 60.474 223.546 60.588 223.685 60.588C223.824 60.588 223.938 60.474 223.938 60.3345C223.938 60.1951 223.824 60.081 223.685 60.081C223.546 60.081 223.432 60.1951 223.432 60.3345ZM213.297 61.3486C213.297 61.488 213.411 61.6021 213.55 61.6021C213.69 61.6021 213.804 61.488 213.804 61.3486C213.804 61.2091 213.69 61.0951 213.55 61.0951C213.411 61.0951 213.297 61.2091 213.297 61.3486ZM222.925 61.3486C222.925 61.488 223.039 61.6021 223.178 61.6021C223.318 61.6021 223.432 61.488 223.432 61.3486C223.432 61.2091 223.318 61.0951 223.178 61.0951C223.039 61.0951 222.925 61.2091 222.925 61.3486ZM215.831 64.3907C215.831 64.5301 215.945 64.6442 216.084 64.6442C216.223 64.6442 216.337 64.5301 216.337 64.3907C216.337 64.2512 216.223 64.1371 216.084 64.1371C215.945 64.1371 215.831 64.2512 215.831 64.3907ZM213.972 65.4894C214.158 65.6749 214.462 65.6749 214.648 65.4894C214.834 65.3033 214.682 65.1512 214.31 65.1512C213.939 65.1512 213.787 65.3033 213.972 65.4894ZM201.642 68.4468C201.642 68.5862 201.756 68.7003 201.895 68.7003C202.035 68.7003 202.149 68.5862 202.149 68.4468C202.149 68.3073 202.035 68.1933 201.895 68.1933C201.756 68.1933 201.642 68.3073 201.642 68.4468ZM203.162 69.2073C203.58 69.4775 204.264 69.6864 204.682 69.6707C205.183 69.6525 205.097 69.4948 204.429 69.2073C203.036 68.6085 202.236 68.6085 203.162 69.2073ZM119.043 69.9957C119.043 70.3105 122.972 72.149 127.024 73.7309C131.149 75.3411 130.171 74.4802 125.034 71.9791C120.69 69.8639 119.043 69.3183 119.043 69.9957ZM206.329 70.0636C206.817 70.1914 207.615 70.1914 208.103 70.0636C208.59 69.9364 208.191 69.8319 207.216 69.8319C206.24 69.8319 205.842 69.9364 206.329 70.0636ZM210.162 70.0606C210.527 70.2071 210.964 70.1889 211.133 70.0205C211.301 69.8522 211.002 69.7326 210.468 69.7544C209.877 69.7787 209.757 69.8989 210.162 70.0606ZM297.558 74.1436C298.89 74.2485 300.942 74.247 302.118 74.141C303.294 74.0346 302.204 73.9489 299.696 73.9504C297.188 73.9519 296.225 74.0391 297.558 74.1436ZM293.774 74.6237C294.139 74.7702 294.576 74.752 294.745 74.5837C294.913 74.4153 294.614 74.2957 294.08 74.3175C293.489 74.3418 293.369 74.462 293.774 74.6237ZM305.27 74.6496C305.828 74.789 307.424 75.3493 308.817 75.8943C310.211 76.4393 311.123 76.6751 310.844 76.418C310.075 75.7092 306.126 74.2698 305.133 74.3362C304.436 74.3829 304.464 74.4473 305.27 74.6496ZM130.698 74.9837C130.698 75.0932 131.052 75.3188 131.485 75.4851C131.936 75.658 132.139 75.5729 131.961 75.2859C131.664 74.8037 130.698 74.573 130.698 74.9837ZM132.93 76.3841C132.706 76.7466 132.791 76.8318 133.153 76.6072C133.738 76.2462 133.938 75.7985 133.515 75.7985C133.392 75.7985 133.129 76.0621 132.93 76.3841ZM133.944 76.8911C133.719 77.2536 133.805 77.3388 134.167 77.1142C134.489 76.9154 134.752 76.6523 134.752 76.5291C134.752 76.1062 134.305 76.3065 133.944 76.8911ZM135.009 77.3139C134.825 77.6116 135.053 77.6795 135.569 77.4813C136.155 77.2561 136.32 77.3388 136.076 77.7348C135.835 78.1247 135.991 78.2149 136.542 78.0035C137.205 77.749 137.236 77.5999 136.695 77.2567C135.804 76.6918 135.385 76.7055 135.009 77.3139ZM287.281 77.066C287.281 77.2054 287.395 77.3195 287.534 77.3195C287.674 77.3195 287.788 77.2054 287.788 77.066C287.788 76.9266 287.674 76.8125 287.534 76.8125C287.395 76.8125 287.281 76.9266 287.281 77.066ZM285.966 77.9051C285.741 78.2676 285.827 78.3528 286.189 78.1282C286.773 77.7672 286.973 77.3195 286.551 77.3195C286.428 77.3195 286.165 77.5832 285.966 77.9051ZM137.793 78.08C137.793 78.2195 137.907 78.3335 138.046 78.3335C138.185 78.3335 138.299 78.2195 138.299 78.08C138.299 77.9406 138.185 77.8265 138.046 77.8265C137.907 77.8265 137.793 77.9406 137.793 78.08ZM136.779 78.5871C136.779 78.7265 136.893 78.8406 137.032 78.8406C137.172 78.8406 137.286 78.7265 137.286 78.5871C137.286 78.4476 137.172 78.3335 137.032 78.3335C136.893 78.3335 136.779 78.4476 136.779 78.5871ZM139.313 78.8406C139.731 79.1108 140.301 79.3319 140.58 79.3319C140.858 79.3319 140.744 79.1108 140.326 78.8406C139.908 78.5703 139.338 78.3493 139.059 78.3493C138.781 78.3493 138.895 78.5703 139.313 78.8406ZM137.793 79.0941C137.793 79.2335 137.907 79.3476 138.046 79.3476C138.185 79.3476 138.299 79.2335 138.299 79.0941C138.299 78.9546 138.185 78.8406 138.046 78.8406C137.907 78.8406 137.793 78.9546 137.793 79.0941ZM301.249 79.6224C301.01 80.3302 300.392 80.6962 299.297 80.7799C294.928 81.113 292.108 86.099 294.104 89.9604C294.839 91.3821 299.06 94.558 300.214 94.558C300.834 94.558 301.46 100.207 301.467 105.839C301.469 108.433 301.356 108.754 300.44 108.754C298.91 108.754 296.281 107.521 295.183 106.289C293.953 104.907 293.154 104.88 293.991 106.248C294.863 107.674 297.288 109.106 299.541 109.524C300.903 109.776 301.471 110.167 301.625 110.96C301.834 112.028 301.84 112.027 301.907 110.909C301.945 110.282 302.273 109.768 302.635 109.768C302.997 109.768 304.249 109.149 305.416 108.391C307.978 106.729 309.291 104.257 308.853 101.92C308.412 99.5734 305.97 96.4066 303.809 95.3804L301.976 94.5103V87.9029V81.295L303.623 81.5703L305.27 81.8456L303.65 81.2915C302.659 80.9528 301.946 80.3195 301.814 79.6619C301.6 78.5957 301.595 78.5952 301.249 79.6224ZM138.806 79.6011C138.806 79.7405 138.92 79.8546 139.059 79.8546C139.199 79.8546 139.313 79.7405 139.313 79.6011C139.313 79.4616 139.199 79.3476 139.059 79.3476C138.92 79.3476 138.806 79.4616 138.806 79.6011ZM141.846 79.8546C142.265 80.1248 142.835 80.3459 143.113 80.3459C143.392 80.3459 143.278 80.1248 142.86 79.8546C142.442 79.5844 141.872 79.3633 141.593 79.3633C141.314 79.3633 141.428 79.5844 141.846 79.8546ZM282.925 80.4884L281.96 81.6291L283.1 80.6633C284.172 79.7557 284.471 79.3476 284.066 79.3476C283.969 79.3476 283.457 79.8607 282.925 80.4884ZM144.042 80.6998C144.228 80.8854 144.532 80.8854 144.718 80.6998C144.904 80.5137 144.752 80.3616 144.38 80.3616C144.009 80.3616 143.857 80.5137 144.042 80.6998ZM300.963 87.7133C300.963 91.199 300.84 94.051 300.689 94.051C300.539 94.051 299.532 93.5997 298.451 93.0486C295.012 91.2923 293.161 87.4978 294.496 84.9399C295.335 83.3337 298.233 81.3756 299.771 81.3756C300.959 81.3756 300.963 81.3974 300.963 87.7133ZM305.524 82.1361C305.524 82.2756 305.638 82.3897 305.777 82.3897C305.916 82.3897 306.03 82.2756 306.03 82.1361C306.03 81.9967 305.916 81.8826 305.777 81.8826C305.638 81.8826 305.524 81.9967 305.524 82.1361ZM280.187 83.6572C280.187 83.7966 280.301 83.9107 280.44 83.9107C280.579 83.9107 280.693 83.7966 280.693 83.6572C280.693 83.5178 280.579 83.4037 280.44 83.4037C280.301 83.4037 280.187 83.5178 280.187 83.6572ZM279.68 84.6712C279.68 84.8106 279.794 84.9247 279.933 84.9247C280.073 84.9247 280.187 84.8106 280.187 84.6712C280.187 84.5318 280.073 84.4177 279.933 84.4177C279.794 84.4177 279.68 84.5318 279.68 84.6712ZM319.754 84.4177C319.731 84.5571 320.158 85.812 320.702 87.2063C321.247 88.6006 321.697 89.3991 321.702 88.9808C321.712 88.2624 319.84 83.8783 319.754 84.4177ZM279.173 85.6852C279.173 85.8247 279.287 85.9388 279.426 85.9388C279.566 85.9388 279.68 85.8247 279.68 85.6852C279.68 85.5458 279.566 85.4317 279.426 85.4317C279.287 85.4317 279.173 85.5458 279.173 85.6852ZM199.615 86.4478C205.274 86.863 207.892 87.5257 211.933 89.5669C215.505 91.3709 218.847 94.3552 220.758 97.4459L222.165 99.7224L232.046 99.4482C237.675 99.292 243.345 98.861 245.221 98.4473C249.696 97.4607 248.576 97.4449 241.719 98.3986C238.064 98.9072 233.49 99.1373 229.132 99.0324C222.467 98.8722 222.265 98.8342 221.473 97.6001C221.025 96.9029 219.409 95.0057 217.882 93.3838C213.218 88.4302 206.528 85.8602 198.703 86.0168L194.801 86.0949L199.615 86.4478ZM192.901 86.7814C193.249 86.9224 193.819 86.9224 194.167 86.7814C194.516 86.641 194.231 86.5259 193.534 86.5259C192.837 86.5259 192.552 86.641 192.901 86.7814ZM278.081 88.3471C277.166 90.9622 277.288 97.2629 278.32 100.725C280.158 106.893 285.777 113.067 291.667 115.392C295.471 116.893 303.701 117.053 306.537 115.682C307.512 115.21 307.855 114.975 307.297 115.161C306.74 115.346 304.081 115.603 301.39 115.732C297.313 115.928 295.951 115.785 293.227 114.878C284.735 112.05 279.394 105.804 278.187 97.2862C277.711 93.9237 278.032 89.6313 278.933 87.333C279.125 86.8448 279.161 86.4458 279.013 86.4458C278.865 86.4458 278.446 87.3016 278.081 88.3471ZM190.905 87.2991C191.271 87.4456 191.708 87.4274 191.876 87.259C192.045 87.0907 191.746 86.971 191.212 86.9928C190.621 87.0172 190.501 87.1373 190.905 87.2991ZM189.48 87.7133C189.48 87.8527 189.594 87.9668 189.733 87.9668C189.873 87.9668 189.987 87.8527 189.987 87.7133C189.987 87.5739 189.873 87.4598 189.733 87.4598C189.594 87.4598 189.48 87.5739 189.48 87.7133ZM144.38 88.7273C144.38 88.8668 144.494 88.9808 144.634 88.9808C144.773 88.9808 144.887 88.8668 144.887 88.7273C144.887 88.5879 144.773 88.4738 144.634 88.4738C144.494 88.4738 144.38 88.5879 144.38 88.7273ZM174.911 88.8232C175.399 88.9509 176.197 88.9509 176.685 88.8232C177.172 88.6959 176.774 88.5915 175.798 88.5915C174.823 88.5915 174.424 88.6959 174.911 88.8232ZM178.237 89.3271C178.602 89.4737 179.04 89.4554 179.208 89.2871C179.376 89.1188 179.077 88.9991 178.543 89.0209C177.953 89.0452 177.833 89.1654 178.237 89.3271ZM179.852 89.2343C179.852 89.3738 179.966 89.4879 180.105 89.4879C180.245 89.4879 180.359 89.3738 180.359 89.2343C180.359 89.0949 180.245 88.9808 180.105 88.9808C179.966 88.9808 179.852 89.0949 179.852 89.2343ZM181.372 89.2343C181.372 89.3738 181.486 89.4879 181.626 89.4879C181.765 89.4879 181.879 89.3738 181.879 89.2343C181.879 89.0949 181.765 88.9808 181.626 88.9808C181.486 88.9808 181.372 89.0949 181.372 89.2343ZM184.413 89.7414C184.413 89.8808 184.527 89.9949 184.666 89.9949C184.805 89.9949 184.919 89.8808 184.919 89.7414C184.919 89.6019 184.805 89.4879 184.666 89.4879C184.527 89.4879 184.413 89.6019 184.413 89.7414ZM321.838 91.2624C321.848 92.099 321.962 92.3799 322.09 91.8865C322.219 91.3932 322.21 90.7087 322.072 90.3655C321.933 90.0222 321.828 90.4258 321.838 91.2624ZM256.37 91.0089C256.37 91.3805 256.522 91.5326 256.708 91.3471C256.893 91.161 256.893 90.8568 256.708 90.6707C256.522 90.4851 256.37 90.6373 256.37 91.0089ZM268.025 92.5299C268.025 92.9016 268.177 93.0537 268.363 92.8681C268.548 92.682 268.548 92.3778 268.363 92.1918C268.177 92.0062 268.025 92.1583 268.025 92.5299ZM179.852 92.7834C179.852 92.9229 179.966 93.037 180.105 93.037C180.245 93.037 180.359 92.9229 180.359 92.7834C180.359 92.644 180.245 92.5299 180.105 92.5299C179.966 92.5299 179.852 92.644 179.852 92.7834ZM195.109 93.0785C189.146 94.2502 183.238 98.5715 180.784 103.557C179.769 105.619 179.599 106.733 179.599 111.289C179.599 114.862 179.82 116.947 180.271 117.627L180.942 118.641L180.577 117.627C180.376 117.069 180.105 114.532 179.975 111.988C179.757 107.756 179.855 107.1 181.13 104.258C182.825 100.479 185.857 97.5489 190.149 95.5426C200.743 90.5906 212.649 94.3263 217.45 104.109C218.41 106.066 218.611 107.302 218.614 111.289C218.617 115.546 218.452 116.443 217.195 119.005C210.507 132.631 190.38 133.764 182.345 120.967C181.542 119.688 180.88 118.831 180.875 119.062C180.856 119.878 184.52 124.978 186.049 126.266C195.854 134.521 211.768 131.081 217.477 119.473C218.989 116.399 219.124 115.727 219.115 111.299C219.107 107.175 218.914 106.06 217.786 103.637C214.103 95.7231 204.471 91.2386 195.109 93.0785ZM257.499 93.6707C266.332 107.303 273.992 123.538 277.415 135.88C278.188 138.668 278.994 141.147 279.206 141.388C279.419 141.629 279.755 140.488 279.953 138.853C280.41 135.091 282.393 128.132 284.088 124.345C284.805 122.741 285.435 121.43 285.486 121.43C285.538 121.43 286.659 121.798 287.978 122.247C289.297 122.697 290.516 122.925 290.687 122.754C290.857 122.584 290.667 122.444 290.265 122.444C288.858 122.444 282.438 119.029 278.92 116.408L275.372 113.767L277.906 116.107C279.3 117.393 281.49 119.043 282.773 119.771L285.107 121.097L283.146 125.282C282.068 127.584 280.698 131.561 280.101 134.12L279.017 138.772L277.864 134.791C275.554 126.821 273.448 121.502 269.059 112.557C265.165 104.624 257.915 92.5299 257.053 92.5299C256.892 92.5299 257.092 93.043 257.499 93.6707ZM321.925 96.5861C321.233 101.321 319.622 105.132 316.782 108.748L314.588 111.543L316.716 109.261C320.184 105.544 323.219 97.6822 322.648 93.8938C322.556 93.2834 322.231 94.4946 321.925 96.5861ZM304.388 96.5835C307.844 98.6917 309.112 103.22 306.999 105.908C305.959 107.23 303.555 108.754 302.508 108.754C302.164 108.754 301.976 106.427 301.976 102.163C301.976 98.5381 302.147 95.573 302.356 95.5741C302.566 95.5751 303.48 96.0294 304.388 96.5835ZM175.31 97.5747C172.236 101.893 170.415 109.114 171.213 113.825C171.539 115.754 171.601 115.432 171.616 111.735C171.637 106.553 172.583 102.972 174.98 98.9944C176.871 95.8575 177.035 95.1497 175.31 97.5747ZM199.119 98.2338C199.112 98.8499 198.703 99.1211 197.781 99.1211C195.864 99.1211 192.52 102.584 192.52 104.57C192.52 106.487 194.02 108.403 196.792 110.028C198.934 111.284 198.967 111.345 199.285 114.717C199.462 116.596 199.609 119.218 199.611 120.542C199.614 122.736 199.508 122.951 198.419 122.951C197.761 122.951 196.45 122.428 195.505 121.788C192.535 119.777 192.223 119.705 193.787 121.386C194.665 122.33 196.211 123.263 197.443 123.593C198.618 123.908 199.675 124.519 199.792 124.952C199.978 125.643 200.011 125.64 200.063 124.929C200.095 124.483 200.977 123.728 202.022 123.249C203.067 122.771 204.344 121.807 204.86 121.108C206.855 118.403 205.391 113.898 201.907 112.021L200.122 111.059V105.414V99.7686L201.515 99.9339C202.331 100.03 202.489 99.9825 201.895 99.8178C201.338 99.6636 200.488 99.0441 200.006 98.4417C199.249 97.4951 199.129 97.4667 199.119 98.2338ZM199.108 105.218V110.808L197.715 110.045C192.837 107.374 191.801 103.712 195.13 100.909C195.967 100.205 197.205 99.6281 197.88 99.6281C199.106 99.6281 199.108 99.6408 199.108 105.218ZM222.925 101.656C222.925 102.028 223.077 102.18 223.263 101.994C223.448 101.808 223.448 101.504 223.263 101.318C223.077 101.132 222.925 101.285 222.925 101.656ZM223.432 103.177C223.432 103.549 223.584 103.701 223.77 103.515C223.955 103.329 223.955 103.025 223.77 102.839C223.584 102.653 223.432 102.806 223.432 103.177ZM269.545 103.177C269.545 103.549 269.697 103.701 269.883 103.515C270.068 103.329 270.068 103.025 269.883 102.839C269.697 102.653 269.545 102.806 269.545 103.177ZM223.978 105.501C224.003 106.092 224.123 106.212 224.284 105.808C224.431 105.442 224.413 105.004 224.244 104.836C224.076 104.667 223.957 104.966 223.978 105.501ZM224.384 112.05C224.013 118.037 222.93 121.209 219.582 126.115C215.411 132.226 209.388 135.757 201.388 136.784C192.212 137.961 182.205 133.758 176.713 126.422C174.08 122.905 173.867 122.746 175.317 125.379C175.975 126.575 177.899 128.885 179.592 130.511C184.66 135.381 190.404 137.661 197.568 137.647C205.277 137.631 211.851 135.052 217.149 129.961C222.53 124.791 225.102 118.527 224.846 111.213L224.698 106.98L224.384 112.05ZM108.156 109.913C105.208 110.671 101.143 115.047 96.9858 121.937C94.071 126.768 92.4145 128.81 87.3197 133.852C80.2963 140.802 79.298 142.69 79.2818 149.062C79.2717 153.201 80.6855 156.568 83.4563 159.002C84.9309 160.298 85.0277 160.524 84.2296 160.813C77.343 163.307 71.8895 167.018 64.5919 174.175C61.2348 177.467 57.4616 180.747 56.2074 181.464C54.9532 182.18 54.1971 182.769 54.5275 182.772C56.2905 182.79 58.4299 181.181 63.511 176.014C73.9392 165.411 85.3764 159.473 97.042 158.607C101.488 158.277 101.365 158.223 103.47 161.437C105.078 163.894 106.931 165.106 109.522 165.398C112.072 165.686 115.384 164.313 116.71 162.419L117.485 161.312L119.657 162.28C123.622 164.047 130.507 169.008 133.632 172.352C138.515 177.574 141.74 183.757 144.736 193.642L145.647 196.647L151.475 200.144C158.805 204.542 165.165 208.796 170.877 213.122C175.994 216.998 175.917 216.636 172.941 222.76L171.128 226.491L167.255 226.15C151.922 224.802 141.634 221.361 135.389 215.492L132.68 212.946L133.224 210.157C133.835 207.025 133.917 196.092 133.349 193.527C133.127 192.526 132.963 194.767 132.94 199.104C132.878 210.804 130.186 222.145 125.958 228.518C122.655 233.497 120.764 234.044 106.923 234.017C95.8547 233.997 87.4043 231.976 77.946 227.088C74.0902 225.096 73.3509 224.497 72.4504 222.635C70.5466 218.701 71.1025 213.931 74.261 207.099C75.7513 203.875 76.4339 203.005 78.6398 201.522C81.1795 199.813 86.891 194.947 86.3564 194.947C86.2104 194.947 84.783 196.014 83.1842 197.318C76.5864 202.702 70.3393 206.057 62.4322 208.465C58.4142 209.689 57.1671 209.825 49.6198 209.862C39.9258 209.91 35.2182 209.07 24.3947 205.359C20.8491 204.143 17.8786 203.218 17.7929 203.302C17.5264 203.564 25.7427 206.573 30.3317 207.893C37.1175 209.847 42.7408 210.663 49.4242 210.664C58.0813 210.665 63.9336 209.375 71.1243 205.881C72.9668 204.986 74.4019 204.384 74.3137 204.544C70.6241 211.198 69.5225 218.692 71.6168 222.892C72.3764 224.415 72.3455 224.569 70.7326 227.327C67.0516 233.621 64.3461 240.475 62.2994 248.69C60.0475 257.729 59.562 261.5 59.5519 270.022L59.5422 277.918L53.9478 278.53C35.6875 280.529 12.5624 285.483 11.7632 287.567C11.5438 288.139 10.4432 288.273 6.60868 288.196L1.73282 288.097L1.38216 290.069C1.18909 291.153 1.01781 294.721 1.00211 297.997C0.967648 304.959 1.32591 305.34 4.33646 301.547C6.84026 298.391 8.07214 297.388 9.46061 297.375C10.389 297.366 10.6008 297.642 10.6008 298.865C10.6008 300.518 10.0317 300.263 18.4552 302.382C23.5759 303.669 35.5157 305.724 42.7788 306.568C45.8445 306.924 53.8293 307.223 60.5228 307.233L72.6926 307.25L76.1365 305.555C86.6959 300.358 97.8031 282.248 105.96 256.929C107.239 252.959 108.388 250.211 108.77 250.211C109.72 250.211 109.565 252.662 108.368 256.54C107.135 260.532 101.501 274.203 99.2458 278.672L97.6739 281.789L103.053 290.65C106.206 295.845 108.327 299.853 108.179 300.338C108.039 300.794 107.577 305.159 107.153 310.039C105.882 324.638 106.225 336.902 108.312 351.476C109.115 357.08 109.231 357.42 110.429 357.698C112.066 358.078 112.29 359.814 111.189 363.603C110.685 365.336 110.544 366.635 110.827 366.919C111.595 367.688 124.567 368.531 125.946 367.902C127.513 367.188 127.04 366.036 124.682 364.821C121.786 363.331 119.885 361.071 120.329 359.647C120.805 358.122 121.455 357.716 123.429 357.706C124.97 357.699 125.082 357.548 126.537 353.515C129.635 344.93 133.69 331.839 135.687 323.982C141.471 301.216 141.679 290.601 136.723 270.999C134.601 262.606 129.007 245.486 125.775 237.49L123.809 232.628L125.55 230.392C127.684 227.652 129.717 223.307 131.223 218.269C131.848 216.178 132.469 214.274 132.602 214.038C132.736 213.802 133.901 214.644 135.192 215.909C141.383 221.975 151.433 225.377 166.967 226.665L171.058 227.004L172.644 224.532C173.515 223.172 174.596 221.181 175.044 220.107C175.804 218.288 175.97 218.177 177.476 218.477C178.365 218.654 179.168 219.024 179.262 219.298C179.355 219.572 179.64 219.668 179.895 219.51C180.15 219.352 180.359 219.465 180.359 219.761C180.359 220.056 180.828 220.297 181.402 220.297C181.996 220.297 182.305 220.525 182.12 220.825C181.94 221.115 181.35 221.212 180.809 221.04C179.754 220.705 175.291 222.601 175.291 223.385C175.291 223.639 174.924 223.847 174.475 223.847C173.853 223.847 173.944 224.084 174.855 224.844C175.513 225.392 175.863 225.848 175.632 225.858C175.402 225.867 175.926 226.475 176.798 227.209L178.382 228.542L180.176 227.589C182.073 226.58 183.428 224.574 183.01 223.393C182.805 222.817 183.428 222.735 186.391 222.947C188.389 223.09 190.15 223.335 190.307 223.49C190.462 223.646 188.573 226.498 186.108 229.827C183.642 233.156 179.584 238.693 177.089 242.132L172.552 248.383L171.306 245.621C170.372 243.552 170.056 241.969 170.044 239.311C170.026 235.245 170.753 232.67 172.836 229.424L174.3 227.142L172.748 228.917C171.852 229.942 170.749 232.157 170.139 234.162C168.855 238.381 169.121 241.91 171.048 246.207L172.347 249.102L169.259 253.021C166.752 256.202 166.17 257.29 166.17 258.8C166.17 263.888 173.08 271.943 180.546 275.559C187.278 278.819 193.567 279.93 197.507 278.556C199.262 277.944 202.269 274.455 204.196 270.794C205.311 268.678 206.006 268.127 210.763 265.59C213.69 264.028 218.478 261.361 221.405 259.661C224.331 257.961 230.146 254.825 234.327 252.693C238.507 250.561 241.928 248.512 241.928 248.139C241.928 247.766 241.226 247.259 240.369 247.014C239.078 246.643 237.643 247.001 232.008 249.102C228.266 250.497 223.432 252.261 221.264 253.023C219.096 253.785 217.4 254.485 217.494 254.58C217.757 254.843 232.702 249.916 234.568 248.95C235.476 248.48 236.648 248.209 237.173 248.346C237.699 248.483 238.011 248.405 237.866 248.171C237.422 247.452 238.582 247.077 240.171 247.426C241.8 247.785 241.752 248.69 240.103 248.69C239.55 248.69 238.822 248.919 238.486 249.199C238.149 249.479 235.821 250.769 233.313 252.064C230.805 253.36 223.45 257.466 216.969 261.189C210.488 264.911 205.094 267.957 204.983 267.957C204.872 267.957 204.568 267.33 204.308 266.563C203.127 263.084 205.834 260.098 213.381 256.556C217.742 254.508 217.646 254.234 213.202 256.041C211.488 256.738 210.029 257.251 209.96 257.182C209.892 257.113 211.051 255.094 212.538 252.696C214.024 250.299 216.62 245.693 218.307 242.462C221.099 237.115 221.326 236.447 220.833 235.033C219.495 231.192 207.031 222.76 199.419 220.546C195.694 219.462 193.558 219.837 192.084 221.831C191.134 223.118 190.802 223.269 189.944 222.81C189.385 222.51 187.513 222.222 185.783 222.169C183.057 222.085 182.639 221.943 182.639 221.101C182.639 219.984 178.877 217.762 176.985 217.762C176.196 217.762 175.795 217.465 175.789 216.875C175.774 215.341 161.066 204.827 150.853 199.052L146.009 196.312L145.127 192.967C142.688 183.713 138.647 176.376 132.863 170.697C131.066 168.932 129.673 167.422 129.767 167.339C129.861 167.257 130.736 166.793 131.712 166.308C133.929 165.206 136.632 162.691 137.613 160.817C138.248 159.604 138.273 158.504 137.781 153.507C137.463 150.272 137.171 145.096 137.133 142.006L137.063 136.387L138.928 133.345C141.499 129.148 142.222 126.214 141.384 123.375C140.436 120.159 137.343 116.318 134.448 114.76C130.296 112.526 128.414 112.496 121.83 114.556C121.056 114.798 120.61 114.504 119.94 113.31C118.388 110.547 112.404 108.822 108.156 109.913ZM203.222 113.765C204.84 115.384 205.186 116.081 205.173 117.694C205.156 119.809 204.626 120.737 202.669 122.087C200.3 123.72 200.122 123.391 200.122 117.374C200.122 113.602 200.305 111.796 200.688 111.796C200.999 111.796 202.139 112.682 203.222 113.765ZM274.106 111.988C274.106 112.093 274.505 112.493 274.992 112.875C275.796 113.506 275.814 113.488 275.184 112.684C274.522 111.839 274.106 111.571 274.106 111.988ZM313.125 112.05C313.125 112.189 313.239 112.303 313.378 112.303C313.517 112.303 313.631 112.189 313.631 112.05C313.631 111.911 313.517 111.796 313.378 111.796C313.239 111.796 313.125 111.911 313.125 112.05ZM309.577 114.078C308.881 114.477 308.552 114.811 308.847 114.821C309.142 114.83 309.826 114.503 310.367 114.094C311.619 113.147 311.219 113.139 309.577 114.078ZM171.784 117.162C171.808 117.753 171.929 117.873 172.09 117.469C172.237 117.103 172.218 116.665 172.05 116.497C171.882 116.329 171.762 116.628 171.784 117.162ZM172.251 118.895C172.251 119.266 172.403 119.418 172.589 119.233C172.774 119.047 172.774 118.743 172.589 118.556C172.403 118.371 172.251 118.523 172.251 118.895ZM369.88 122.925C362.129 130.947 354.132 132.723 334.408 130.802C324.351 129.823 313.94 129.822 309.324 130.8C307.373 131.214 303.839 132.507 301.47 133.674C298.048 135.36 296.309 136.659 293.013 139.992C289.374 143.671 288.838 144.05 288.648 143.075C288.492 142.275 288.413 142.407 288.363 143.551C288.325 144.424 287.389 146.934 286.283 149.128C283.913 153.831 282.852 157.649 282.396 163.118L282.064 167.109L280.571 166.781C279.75 166.6 278.359 166.454 277.478 166.455C275.227 166.459 269.443 167.56 268.533 168.158C267.905 168.571 267.927 168.61 268.663 168.381C276.457 165.953 286.466 167.315 292.477 171.622L295.33 173.666L297.002 171.585C298.989 169.11 302.547 166.414 306.067 164.715L308.616 163.485L312.518 164.697C316.694 165.995 319.712 166.669 319.712 166.304C319.712 166.181 317.717 165.478 315.278 164.742C312.84 164.006 310.666 163.239 310.449 163.037C310.232 162.836 312.513 161.947 315.519 161.063C320.465 159.608 321.707 159.446 328.583 159.354L336.181 159.252L330.1 158.974L324.02 158.695L327.567 157.73C342.028 153.794 350.754 149.719 356.958 144.006C358.848 142.265 358.78 142.289 355.944 144.368C351.985 147.269 347.514 149.934 344.032 151.47C340.278 153.125 334.404 155.057 334.088 154.742C333.729 154.383 336.243 149.506 338.19 146.78C340.427 143.651 340.794 142.983 340.011 143.467C339.104 144.028 335.08 150.366 333.936 153.035C333.189 154.78 332.584 155.417 331.281 155.836C327.745 156.972 318.048 159.48 317.871 159.304C317.623 159.056 319.906 153.485 322.059 149.081C323.611 145.907 323.662 145.681 322.524 147.034C321.163 148.653 317.863 155.904 317.373 158.355C317.114 159.652 316.718 159.925 313.994 160.682C312.297 161.155 309.239 162.312 307.201 163.255L303.494 164.969L303.803 163.606C304.64 159.927 307.702 151.536 309.417 148.22C311.898 143.426 312.05 142.909 310.086 145.947C307.676 149.676 305.17 155.742 303.92 160.87C303.014 164.585 302.563 165.597 301.578 166.125C300.907 166.484 299.127 168.108 297.622 169.735L294.886 172.692L293.237 171.456C290.914 169.713 287.813 168.224 285.068 167.533C282.306 166.836 282.277 166.692 283.499 159.684C285.829 146.315 295.937 135.183 308.817 131.801C313.724 130.512 322.43 130.327 332.634 131.293C354.781 133.389 362.52 131.897 370.341 124.021L373.588 120.749L373.244 124.455C372.126 136.492 366.862 150.999 359.534 162.244C355.553 168.352 349.285 175.552 345.575 178.278C336.125 185.221 322.437 189.54 309.714 189.594C305.399 189.613 303.503 189.771 304.393 190.038C310.541 191.884 328.431 188.567 338.025 183.802C353.791 175.973 367.285 156.132 372.688 132.838C373.434 129.62 374.36 118.826 373.88 118.943C373.77 118.97 371.97 120.762 369.88 122.925ZM172.773 120.162C172.773 120.441 172.994 121.011 173.264 121.43C173.534 121.848 173.755 121.962 173.755 121.683C173.755 121.404 173.534 120.834 173.264 120.416C172.994 119.997 172.773 119.883 172.773 120.162ZM173.771 122.697C173.771 122.837 173.885 122.951 174.024 122.951C174.164 122.951 174.278 122.837 174.278 122.697C174.278 122.558 174.164 122.444 174.024 122.444C173.885 122.444 173.771 122.558 173.771 122.697ZM291.504 123.289C291.69 123.475 291.994 123.475 292.18 123.289C292.365 123.103 292.213 122.951 291.842 122.951C291.47 122.951 291.318 123.103 291.504 123.289ZM292.898 127.641C290.807 131.983 288.783 138.47 288.826 140.686C288.84 141.389 289.405 139.796 290.082 137.147C290.759 134.498 292.298 130.334 293.503 127.894C294.708 125.454 295.518 123.458 295.303 123.458C295.087 123.458 294.005 125.34 292.898 127.641ZM254.326 128.053C261.397 129.201 266.423 133.315 268.977 140.046C269.847 142.337 270.558 144.375 270.558 144.574C270.558 144.772 269.757 143.998 268.778 142.854C265.888 139.476 257.398 133.921 256.5 134.819C256.336 134.984 256.442 135.119 256.737 135.119C258.616 135.119 271.065 144.874 271.065 146.346C271.065 146.574 270.096 147.274 268.912 147.902C267.201 148.809 265.923 149.046 262.704 149.053C255.59 149.069 252.512 146.706 247.693 137.536C246.216 134.725 244.221 131.661 243.26 130.726C242.299 129.792 241.629 128.912 241.771 128.769C242.073 128.468 247.311 127.664 249.529 127.579C250.365 127.548 252.524 127.761 254.326 128.053ZM122.83 130.023C124.065 132.413 126.848 134.225 129.706 134.5C132.705 134.788 132.685 134.68 130.914 141.148C127.907 152.123 124.816 155.93 119.591 155.094C117.629 154.78 117.595 154.802 117.059 156.736C116.76 157.814 116.514 159.311 116.512 160.064C116.509 161.602 114.099 163.763 111.582 164.486C108.692 165.315 104.611 163.046 103.301 159.883C102.581 158.143 102.978 155.794 105.408 147.422C106.817 142.569 106.865 142.135 106.138 140.729C105.21 138.933 105.122 136.068 105.969 135.221C106.304 134.886 107.314 134.612 108.215 134.612C109.456 134.612 110.115 134.98 110.933 136.13C111.98 137.6 112.058 137.624 113.494 136.88C115.842 135.666 118.465 133.14 119.871 130.74C120.583 129.523 121.367 128.528 121.612 128.528C121.857 128.528 122.405 129.201 122.83 130.023ZM119.376 134.485C119.248 134.695 119.798 134.889 120.598 134.919C121.398 134.948 121.932 134.777 121.785 134.539C121.455 134.004 119.695 133.965 119.376 134.485ZM129.248 137.611C129.907 138.144 130.535 138.492 130.644 138.383C131.014 138.015 129.565 136.64 128.807 136.64C128.293 136.64 128.434 136.949 129.248 137.611ZM119.413 138.467C119.209 138.671 119.043 139.187 119.043 139.615C119.043 140.185 119.193 140.242 119.607 139.828C119.917 139.518 120.083 139.002 119.977 138.681C119.87 138.36 119.616 138.264 119.413 138.467ZM127.648 140.962C127.295 141.387 127.135 141.863 127.291 142.02C127.447 142.176 127.83 141.828 128.141 141.247C128.805 140.006 128.559 139.864 127.648 140.962ZM123.991 142.217C123.786 142.914 123.614 144.014 123.611 144.66C123.605 145.632 123.407 145.781 122.464 145.521C121.355 145.216 121.351 145.229 122.307 145.994C124.177 147.489 124.778 146.721 124.523 143.162C124.388 141.288 124.307 141.143 123.991 142.217ZM113.976 147.113C113.976 148.643 115.194 150.837 116.043 150.837C116.312 150.837 116.181 150.298 115.749 149.641C115.319 148.982 115.096 148.106 115.254 147.694C115.412 147.281 115.19 146.65 114.759 146.293C114.083 145.731 113.976 145.844 113.976 147.113ZM116.003 148.048C116.003 148.187 116.117 148.301 116.256 148.301C116.395 148.301 116.509 148.187 116.509 148.048C116.509 147.909 116.395 147.794 116.256 147.794C116.117 147.794 116.003 147.909 116.003 148.048ZM272.079 148.809C272.079 149.18 272.231 149.332 272.417 149.147C272.602 148.961 272.602 148.656 272.417 148.47C272.231 148.285 272.079 148.437 272.079 148.809ZM272.585 150.33C272.585 150.701 272.737 150.853 272.923 150.668C273.109 150.482 273.109 150.177 272.923 149.991C272.737 149.806 272.585 149.958 272.585 150.33ZM273.092 151.851C273.092 152.222 273.244 152.374 273.43 152.189C273.616 152.003 273.616 151.698 273.43 151.512C273.244 151.327 273.092 151.479 273.092 151.851ZM273.599 153.372C273.599 153.743 273.751 153.895 273.937 153.71C274.122 153.524 274.122 153.22 273.937 153.033C273.751 152.848 273.599 153 273.599 153.372ZM274.106 154.893C274.106 155.264 274.258 155.416 274.444 155.231C274.629 155.045 274.629 154.741 274.444 154.555C274.258 154.369 274.106 154.521 274.106 154.893ZM274.612 157.174C274.612 157.314 274.726 157.428 274.866 157.428C275.005 157.428 275.119 157.314 275.119 157.174C275.119 157.035 275.005 156.921 274.866 156.921C274.726 156.921 274.612 157.035 274.612 157.174ZM275.159 158.737C275.183 159.328 275.304 159.448 275.465 159.044C275.612 158.678 275.593 158.24 275.425 158.072C275.257 157.904 275.137 158.203 275.159 158.737ZM275.712 160.47C275.72 160.888 275.91 161.801 276.133 162.498C276.459 163.517 276.541 163.567 276.553 162.751C276.561 162.194 276.372 161.281 276.133 160.723C275.866 160.102 275.703 160.004 275.712 160.47ZM276.679 164.822C276.704 165.412 276.824 165.532 276.985 165.128C277.132 164.762 277.114 164.325 276.945 164.156C276.777 163.988 276.658 164.287 276.679 164.822ZM265.998 169.089C265.58 169.359 265.466 169.58 265.744 169.58C266.023 169.58 266.593 169.359 267.011 169.089C267.429 168.819 267.543 168.598 267.265 168.598C266.986 168.598 266.416 168.819 265.998 169.089ZM264.478 169.85C264.478 169.989 264.592 170.103 264.731 170.103C264.87 170.103 264.984 169.989 264.984 169.85C264.984 169.71 264.87 169.596 264.731 169.596C264.592 169.596 264.478 169.71 264.478 169.85ZM262.674 170.891C261.729 171.649 261.736 171.658 262.831 171.127C263.457 170.823 263.971 170.468 263.971 170.339C263.971 169.951 263.708 170.063 262.674 170.891ZM260.359 172.511C259.729 173.316 259.747 173.333 260.55 172.703C261.038 172.32 261.437 171.921 261.437 171.816C261.437 171.399 261.021 171.667 260.359 172.511ZM272.585 173.364C264.028 175.746 258.8 182.246 258.98 190.276L259.056 193.679L259.379 189.849C260.087 181.433 264.859 176.106 273.726 173.834C282.1 171.687 290.837 175.57 294.66 183.138C295.971 185.734 296.144 186.602 296.146 190.637C296.148 194.517 295.948 195.629 294.807 198.064C291.403 205.328 283.488 209.427 275.37 208.129C273.479 207.826 271.489 207.342 270.949 207.053C270.407 206.763 269.861 206.63 269.734 206.757C269.299 207.192 273.593 208.627 276.258 208.937C281.803 209.583 287.531 207.631 291.638 203.694C298.207 197.396 298.699 186 292.704 178.982C289.013 174.662 284.366 172.609 278.449 172.683C276.478 172.709 273.84 173.014 272.585 173.364ZM257.588 174.793L256.623 175.934L257.763 174.968C258.835 174.06 259.134 173.652 258.729 173.652C258.632 173.652 258.12 174.165 257.588 174.793ZM255.753 177.075C254.985 177.955 253.43 180.741 253.992 180.23C254.448 179.815 256.866 176.187 256.686 176.187C256.599 176.187 256.179 176.587 255.753 177.075ZM278.218 177.77C278.179 178.314 277.506 178.697 276.23 178.901C272.946 179.427 270.627 182.891 271.631 185.771C272.183 187.357 274.656 189.533 276.858 190.37C278.151 190.863 278.16 190.901 278.16 196.709C278.16 202.276 278.11 202.552 277.113 202.552C275.836 202.552 274.232 201.758 272.712 200.372C272.085 199.801 271.572 199.581 271.572 199.884C271.572 200.848 274.579 203.007 276.401 203.349C277.406 203.537 278.16 203.981 278.16 204.383C278.16 204.77 278.388 205.087 278.666 205.087C278.945 205.087 279.173 204.773 279.173 204.388C279.173 204.004 279.862 203.404 280.703 203.055C282.939 202.129 284.757 199.744 284.695 197.823L284.642 196.214L284.139 198.112C283.587 200.188 281.042 202.693 279.739 202.443C279.056 202.313 278.896 201.38 278.776 196.842C278.697 193.848 278.784 191.398 278.969 191.398C279.87 191.398 282.82 193.672 283.468 194.866C283.871 195.608 284.209 195.937 284.22 195.598C284.253 194.598 281.189 191.414 279.877 191.085C278.689 190.786 278.666 190.672 278.666 184.996V179.21L280.06 179.476L281.453 179.742L280.091 179.2C279.341 178.902 278.627 178.274 278.503 177.803C278.304 177.052 278.27 177.048 278.218 177.77ZM278.16 184.759C278.16 190.136 278.13 190.281 277.09 190.009C276.501 189.855 275.133 188.885 274.049 187.853C271.979 185.883 271.488 183.815 272.598 181.741C273.238 180.545 275.489 179.277 277.019 179.25C278.133 179.23 278.16 179.357 278.16 184.759ZM299.949 180.75C299.949 181.122 300.101 181.274 300.287 181.089C300.473 180.902 300.473 180.598 300.287 180.412C300.101 180.227 299.949 180.379 299.949 180.75ZM252.905 182.04C252.581 182.751 252.325 183.607 252.336 183.943C252.347 184.279 252.692 183.777 253.103 182.829C253.969 180.832 253.786 180.104 252.905 182.04ZM52.5654 183.125C52.9308 183.271 53.3681 183.253 53.5364 183.085C53.7046 182.916 53.4056 182.797 52.8715 182.819C52.2812 182.843 52.1611 182.963 52.5654 183.125ZM39.485 185.065C25.8607 187.864 17.6951 190.525 17.6951 192.164C17.6951 193.301 16.5266 192.925 9.96735 189.675C5.39149 187.408 4.5199 187.122 4.5199 187.887C4.5199 189.673 5.6251 191.686 7.8583 193.966C10.1179 196.273 10.1224 196.285 9.09677 197.214C8.53024 197.727 8.06708 198.594 8.06708 199.141C8.06708 199.976 8.29004 200.077 9.46061 199.771C10.2273 199.571 12.0511 199.295 13.5145 199.158C16.1567 198.911 16.1749 198.919 16.1825 200.35C16.1871 201.143 16.4116 202.134 16.6817 202.552C17.0475 203.118 17.1747 202.833 17.1808 201.432C17.1849 200.398 17.4473 197.809 17.7635 195.68L18.3392 191.81L20.5643 190.855C23.9493 189.404 31.142 187.591 41.5119 185.577C52.1464 183.511 52.6784 183.369 49.8731 183.356C48.7583 183.35 44.0836 184.12 39.485 185.065ZM251.623 186.373C251.446 187.254 251.335 189.259 251.375 190.827C251.439 193.312 251.497 193.124 251.827 189.37C252.229 184.816 252.154 183.717 251.623 186.373ZM301.47 185.567C301.47 185.706 301.584 185.821 301.723 185.821C301.862 185.821 301.976 185.706 301.976 185.567C301.976 185.428 301.862 185.314 301.723 185.314C301.584 185.314 301.47 185.428 301.47 185.567ZM14.8331 192.695C17.2543 193.589 17.2877 193.631 16.9923 195.416C16.8276 196.413 16.6903 197.492 16.6872 197.814C16.6837 198.198 16.0229 198.311 14.7631 198.142C13.5921 197.985 12.0815 198.203 10.8851 198.704C8.39848 199.743 8.02704 199.376 9.74793 197.579L11.1009 196.166L8.7831 193.908C6.5651 191.748 5.02664 189.493 5.02664 188.402C5.02664 188.121 6.68013 188.767 8.7005 189.838C10.7209 190.909 13.4811 192.195 14.8331 192.695ZM302.075 190.13C302.085 190.967 302.199 191.248 302.328 190.754C302.456 190.261 302.448 189.576 302.309 189.233C302.17 188.89 302.065 189.294 302.075 190.13ZM301.272 194.884C300.838 198.157 297.999 203.774 295.429 206.448C290.612 211.457 285.522 213.74 278.384 214.097C270.508 214.49 264.73 212.527 259.025 207.521L256.116 204.968L259.255 208.03C265.957 214.569 275.318 216.733 284.698 213.914L285.915 213.548L285.577 229.724C285.391 238.622 285.451 252.86 285.71 261.366C285.97 269.871 286.083 276.928 285.963 277.049C285.842 277.17 285.474 276.999 285.144 276.669C283.837 275.361 283.809 276.224 285.056 279.491C285.88 281.653 286.718 285.622 287.33 290.265C288.416 298.52 289.883 306.217 290.969 309.372C291.651 311.351 291.631 311.545 290.643 312.535C290.063 313.114 289.84 313.588 290.147 313.588C290.453 313.588 291.017 313.21 291.4 312.749C291.782 312.288 292.856 311.592 293.785 311.203C295.315 310.563 295.639 310.593 297.205 311.518C299.106 312.64 299.514 312.24 297.93 310.807C297.134 310.086 296.405 309.957 294.438 310.191L291.951 310.485L290.921 306.333C290.355 304.049 289.735 301.096 289.542 299.772L289.193 297.364H296.871C314.091 297.364 326.005 300.193 332.001 305.705C333.638 307.211 333.901 307.757 333.901 309.66C333.901 317.677 318.394 325.921 298.458 328.502C273.51 331.733 244.732 329.89 232.3 324.265C229.139 322.836 226.012 320.312 225.144 318.49C223.123 314.25 227.562 308.546 236.196 304.29C243.932 300.478 252.669 298.449 265.122 297.572C269.229 297.283 270.035 297.343 269.848 297.927C269.724 298.314 269.247 300.403 268.787 302.569L267.952 306.506L266.653 305.484C265.104 304.265 263.437 304.187 261.238 305.23C259.506 306.052 257.873 308.331 257.916 309.864C257.931 310.418 258.247 310.065 258.69 308.999C259.487 307.082 261.652 305.476 263.441 305.476C265.325 305.476 267.519 306.917 267.51 308.151C267.5 309.595 267.099 310.117 265.278 311.053C264.464 311.471 263.69 312.156 263.557 312.574C263.368 313.172 263.53 313.144 264.317 312.447C265.967 310.985 268.257 311.305 269.756 313.208C270.614 314.297 271.056 314.578 271.06 314.037C271.067 312.982 269.158 310.546 268.324 310.546C267.851 310.546 268.058 308.923 269.114 304.335C270.585 297.945 272.76 285.349 273.359 279.745C273.582 277.664 273.924 276.576 274.354 276.576C275.389 276.576 275.611 275.306 274.836 273.813C274.228 272.64 274.231 271.426 274.86 265.258C276.107 253.033 278.413 217.847 277.995 217.428C277.728 217.162 277.378 221.404 276.084 240.578C275.473 249.641 274.923 257.12 274.862 257.197C274.801 257.276 274.05 256.684 273.194 255.883C271.779 254.561 266.531 252.105 266.052 252.541C265.739 252.826 270.558 258.3 271.894 259.176C272.917 259.847 273.222 259.861 273.935 259.271C274.707 258.632 274.746 258.897 274.423 262.633C274.231 264.864 273.939 267.758 273.775 269.064L273.477 271.439L272.2 269.921C271.446 269.024 270.737 268.589 270.469 268.858C269.715 269.612 270.621 273.53 271.902 275.053L273.101 276.479L272.121 283.246C271.582 286.967 270.871 291.564 270.54 293.462C269.944 296.879 269.924 296.909 268.52 296.601C265.015 295.83 248.892 298.611 241.441 301.271C233.357 304.156 226.351 309.05 224.612 313.026C223.525 315.512 223.147 324.606 223.913 329.845C227.13 351.86 244.452 368.879 269.684 374.815C277.393 376.629 289.241 376.747 295.895 375.077C298.264 374.482 300.602 373.841 301.09 373.652C301.854 373.354 301.976 373.624 301.976 375.604C301.976 377.363 302.299 378.284 303.352 379.537C306.994 383.867 319.172 386.459 333.394 385.932C344.467 385.522 351.691 383.586 354.626 380.242C355.956 378.725 356.133 378.089 356.473 373.582C356.679 370.842 356.724 362.605 356.573 355.278C356.265 340.356 356.244 340.266 352.602 338.407C349.449 336.798 343.369 335.418 337.835 335.055C333.522 334.772 332.886 334.616 333.187 333.918C337.964 322.833 338.013 310.36 333.299 305.537C330.992 303.176 324.408 300.003 318.929 298.612C312.994 297.106 301.816 296.202 294.58 296.643L288.958 296.985L288.337 290.789C287.788 285.3 287.808 284.492 288.512 283.713C289.573 282.541 289.514 281.733 288.212 279.618C287.157 277.904 287.11 277.164 286.821 257.817C286.656 246.802 286.604 232.2 286.706 225.368L286.89 212.946L289.493 211.71C293.272 209.915 297.573 205.393 299.676 201.002C301.292 197.628 302.439 193.212 301.852 192.625C301.716 192.489 301.455 193.506 301.272 194.884ZM251.889 194.947C251.889 195.644 252.004 195.929 252.145 195.581C252.285 195.232 252.285 194.662 252.145 194.313C252.004 193.965 251.889 194.25 251.889 194.947ZM259.422 194.485C259.381 197.223 264.553 204.242 267.952 206.062C269.704 207 269.198 206.283 267.265 205.087C264.789 203.556 262.056 200.06 260.637 196.605C259.975 194.996 259.429 194.042 259.422 194.485ZM252.356 196.975C252.321 197.856 254.661 203.059 255.093 203.059C255.252 203.059 255.01 202.339 254.555 201.459C254.101 200.579 253.427 199.039 253.058 198.037C252.689 197.034 252.374 196.557 252.356 196.975ZM255.61 204.073C255.782 204.352 256.037 204.58 256.176 204.58C256.315 204.58 256.289 204.352 256.116 204.073C255.944 203.794 255.689 203.566 255.55 203.566C255.41 203.566 255.437 203.794 255.61 204.073ZM277.653 216.241C277.653 216.613 277.805 216.765 277.991 216.58C278.176 216.393 278.176 216.089 277.991 215.903C277.805 215.718 277.653 215.87 277.653 216.241ZM201.544 221.88C207.129 223.786 218.027 231.339 219.832 234.556C220.233 235.271 220.404 236.264 220.213 236.762C219.911 237.551 219.382 237.637 216.127 237.428C213.03 237.229 211.662 236.824 208.155 235.066C205.827 233.899 202.499 231.806 200.76 230.414C197.187 227.556 193.534 223.207 193.534 221.81C193.534 220.158 196.571 220.184 201.544 221.88ZM181.039 222.199C181.597 222.687 181.887 222.801 181.683 222.452C181.479 222.104 181.554 221.819 181.849 221.819C182.144 221.819 182.386 222.503 182.386 223.34C182.386 225.257 181.735 225.273 180.393 223.388C178.807 221.159 179.144 220.539 181.039 222.199ZM180.26 223.856C181.43 225.265 181.704 225.875 181.166 225.875C180.742 225.875 179.817 225.023 179.11 223.982C178.403 222.942 177.825 222.354 177.825 222.676C177.825 222.998 178.423 223.973 179.155 224.843C180.674 226.649 180.614 227.214 179.04 225.937C177.423 224.625 176.738 223.109 177.443 222.403C178.285 221.561 178.41 221.626 180.26 223.856ZM195.703 226.454C200.45 232.58 211.181 238.55 217.443 238.55C218.507 238.55 219.378 238.701 219.378 238.885C219.378 239.341 215.006 247.405 211.664 253.113C209.958 256.026 208.271 258.231 207.192 258.959C205.311 260.227 203.173 263.543 203.188 265.168C203.193 265.726 203.498 266.724 203.865 267.386C204.468 268.475 204.336 268.928 202.48 272.135C199.621 277.076 197.567 278.379 192.809 278.266C183.099 278.036 171.996 271.285 168.043 263.208C165.94 258.911 166.152 257.699 169.785 253.253C171.493 251.162 177.35 243.306 182.799 235.795C191.309 224.064 192.782 222.269 193.247 223.061C193.544 223.567 194.649 225.094 195.703 226.454ZM178.435 227.326C177.432 227.552 175.798 225.623 175.798 224.213C175.798 223.346 176.088 223.505 177.522 225.156C178.891 226.733 179.079 227.18 178.435 227.326ZM253.026 250.366C253.835 250.978 255.183 252.22 256.022 253.127C257.685 254.925 258.931 255.203 259.93 253.999C261.615 251.968 257.979 249.17 253.726 249.226L251.556 249.254L253.026 250.366ZM259.452 261.619C259.462 261.898 259.971 263.495 260.583 265.168C261.435 267.498 261.931 268.21 262.706 268.21C264.649 268.21 264.219 266.131 261.737 263.528C260.47 262.199 259.442 261.34 259.452 261.619ZM265.644 282.66C265.812 283.357 266.105 284.954 266.296 286.209C266.677 288.713 267.276 289.758 268.33 289.758C270.365 289.758 269.101 284.729 266.483 282.407L265.34 281.393L265.644 282.66ZM11.4648 289.417C11.3229 289.786 11.0442 291.612 10.845 293.473C10.5116 296.587 10.3874 296.857 9.28781 296.857C7.8284 296.857 6.54686 294.645 6.54686 292.127C6.54686 290.21 7.17217 289.466 9.08056 289.116C11.3766 288.693 11.7252 288.737 11.4648 289.417ZM278.329 292.04C278.557 294.469 278.877 295.308 279.914 296.205C281.211 297.325 282.72 297.291 282.72 296.141C282.72 295.807 281.668 294.063 280.382 292.266L278.044 288.998L278.329 292.04ZM312.891 308.694C311.663 309.593 312.304 310.546 314.138 310.546C315.972 310.546 316.614 309.593 315.386 308.694C314.871 308.319 314.31 308.011 314.138 308.011C313.966 308.011 313.405 308.319 312.891 308.694ZM247.325 309.474C246.949 309.712 246.723 310.336 246.823 310.86C247.062 312.122 250.152 312.508 250.603 311.332C251.232 309.692 248.988 308.419 247.325 309.474ZM282.281 312.888C281.345 313.544 280.858 313.595 279.864 313.142C277.816 312.208 275.796 312.47 274.261 313.868L272.839 315.163L274.46 314.375C276.546 313.363 278.642 313.374 280.113 314.405C281.208 315.173 281.325 315.157 282.029 314.151C282.967 312.81 283.953 312.793 285.254 314.095C286.007 314.849 286.267 314.921 286.267 314.378C286.267 313.723 284.451 312.067 283.734 312.067C283.579 312.067 282.925 312.437 282.281 312.888ZM242.47 316.066C242.009 316.811 243.654 317.894 244.287 317.261C244.585 316.963 244.676 316.47 244.489 316.167C244.078 315.503 242.855 315.441 242.47 316.066ZM255.045 318.372C254.468 319.876 255.247 320.761 257 320.592C258.38 320.459 258.65 320.225 258.65 319.165C258.65 318.105 258.38 317.872 257 317.738C255.863 317.629 255.254 317.826 255.045 318.372ZM303.715 319.222C303.366 319.786 304.316 320.671 305.27 320.671C306.224 320.671 307.174 319.786 306.825 319.222C306.634 318.912 305.934 318.658 305.27 318.658C304.606 318.658 303.907 318.912 303.715 319.222ZM341.539 336.178C350.538 337.433 355.184 339.602 355.184 342.548C355.184 347.498 343.213 351.614 328.819 351.614C317 351.614 307.83 349.755 304.323 346.647C303.541 345.954 303.396 345.934 303.589 346.544C303.914 347.566 308.644 349.906 312.227 350.816C317.786 352.228 326.817 352.786 333.926 352.157C344.251 351.243 350.434 349.315 354.044 345.883L355.691 344.317L355.689 349.36C355.687 355.733 355.044 356.957 350.535 359.172C345.549 361.622 340.712 362.352 329.087 362.408C321.278 362.446 318.08 362.262 315.152 361.603C310.403 360.535 305.492 358.156 303.745 356.079C302.482 354.577 302.425 354.276 302.685 350.392C302.835 348.136 302.971 345.615 302.986 344.789C303.042 341.801 305.332 339.854 311.051 337.935C318.446 335.454 331.118 334.723 341.539 336.178ZM306.46 359.202C311.699 361.902 319.713 363.312 329.847 363.315C341.71 363.319 350.079 361.509 353.959 358.101L355.691 356.579V361.156C355.691 365.32 355.575 365.871 354.401 367.267C352.67 369.325 348.721 371.119 343.514 372.214C337.229 373.535 320.552 373.536 314.898 372.215C309.958 371.061 305.606 368.938 303.817 366.812C302.59 365.353 302.483 364.856 302.483 360.607V355.988L303.877 357.288C304.643 358.003 305.805 358.864 306.46 359.202ZM119.691 359.346C119.319 360.914 118.126 361.756 116.286 361.747C113.35 361.734 112.456 361.248 112.456 359.667V358.205H116.208C119.843 358.205 119.953 358.241 119.691 359.346ZM307.119 370.41C318.372 376.167 346.659 375.161 353.964 368.743L355.691 367.227V372.063C355.691 374.722 355.472 377.474 355.205 378.177C354.633 379.683 350.463 382.232 346.823 383.302C342.527 384.563 337.095 385.1 328.612 385.102C318.486 385.105 313.19 384.244 308.222 381.788C302.888 379.15 302.483 378.466 302.483 372.104V366.873L303.877 368.169C304.643 368.881 306.102 369.889 307.119 370.41Z" fill="#2D2D2D" stroke="black"/>
</svg>
